<?xml version="1.0" encoding="UTF-8" standalone="no"?>
<!-- Created with Inkscape (http://www.inkscape.org/) -->

<svg
   xmlns:dc="http://purl.org/dc/elements/1.1/"
   xmlns:cc="http://creativecommons.org/ns#"
   xmlns:rdf="http://www.w3.org/1999/02/22-rdf-syntax-ns#"
   xmlns:svg="http://www.w3.org/2000/svg"
   xmlns="http://www.w3.org/2000/svg"
   xmlns:sodipodi="http://sodipodi.sourceforge.net/DTD/sodipodi-0.dtd"
   xmlns:inkscape="http://www.inkscape.org/namespaces/inkscape"
   width="60cm"
   height="160cm"
   viewBox="0 0 600 1600"
   version="1.1"
   id="svg8"
   sodipodi:docname="app_graphics.svg"
   inkscape:version="0.92.3 (2405546, 2018-03-11)">
  <defs
     id="defs2" />
  <sodipodi:namedview
     id="base"
     pagecolor="#ffffff"
     bordercolor="#666666"
     borderopacity="1.0"
     inkscape:pageopacity="0.0"
     inkscape:pageshadow="2"
     inkscape:zoom="0.33512179"
     inkscape:cx="1195.3628"
     inkscape:cy="1881.5089"
     inkscape:document-units="mm"
     inkscape:current-layer="g4709"
     showgrid="false"
     inkscape:window-width="1366"
     inkscape:window-height="704"
     inkscape:window-x="0"
     inkscape:window-y="27"
     inkscape:window-maximized="1"
     units="cm" />
  <metadata
     id="metadata5">
    <rdf:RDF>
      <cc:Work
         rdf:about="">
        <dc:format>image/svg+xml</dc:format>
        <dc:type
           rdf:resource="http://purl.org/dc/dcmitype/StillImage" />
        <dc:title></dc:title>
      </cc:Work>
    </rdf:RDF>
  </metadata>
  <g
     inkscape:label="Layer 1"
     inkscape:groupmode="layer"
     id="layer1"
     transform="translate(0,1303)">
    <g
       id="g4661"
       transform="matrix(0.26458333,0,0,0.26458333,-836.74467,-307.80562)">
      <path
         id="path4537"
         d="m 526.9932,-770.61432 c 0,132.096 -100.059,240.828 -228.519,254.537 -9.028,0.972 -18.192,1.463 -27.481,1.463 -9.289,0 -18.463,-0.491 -27.491,-1.463 -128.46,-13.709 -228.509001,-122.441 -228.509001,-254.537 0,-31.295 5.622,-61.294 15.903,-89.015 7.774,-20.982 18.223,-40.657 30.939,-58.629 46.352001,-65.557 122.755001,-108.35598 209.158001,-108.35598 86.403,0 162.806,42.79898 209.157,108.35598 12.706,17.962 23.155,37.637 30.929,58.608 10.292,27.732 15.914,57.731 15.914,89.036 z"
         style="fill:#ff80b0"
         inkscape:connector-curvature="0" />
      <path
         id="path4539"
         d="m 511.08458,-859.65032 c -1.87,82.86 -31.054,242.437 -212.605,343.573 -9.028,0.972 -18.192,1.463 -27.481,1.463 -9.289,0 -18.463,-0.491 -27.491,-1.463 -181.529994,-101.125 -210.734994,-260.691 -212.605994,-343.552 -0.752,-33.113 2.863,-53.979 2.863,-53.979 l 14.566,-2.299 c 4.524,-0.711 9.028,-1.494 13.511,-2.351 38.430994,-7.293 75.106994,-19.623 108.836994,-36.394 37.66801,-18.724 71.648,-42.987 100.32,-71.96198 54.335,54.94098 127.812,92.92298 209.157,108.35598 4.483,0.857 8.976,1.64 13.5,2.351 l 14.566,2.299 c 0,0 3.616,20.856 2.863,53.958 z"
         style="fill:#ffc25f"
         inkscape:connector-curvature="0" />
      <path
         id="path4541"
         d="m 270.99387,-541.58832 c -52.36599,-27.593 -95.413,-62.263 -128.116,-103.222 -28.53,-35.733 -49.464994,-76.517 -62.222994,-121.217 -13.829,-48.454 -15.049,-91.419 -13.993,-116.985 76.881994,-14.31 147.968004,-47.546 204.331994,-95.26 56.363,47.714 127.449,80.949 204.331,95.26 1.055,25.566 -0.164,68.531 -13.993,116.985 -12.757,44.7 -33.692,85.483 -62.222,121.216 -32.703,40.96 -75.75,75.63 -128.116,103.223 z"
         style="fill:#53506d"
         inkscape:connector-curvature="0" />
      <g
         id="g4585">
</g>
      <g
         id="g4587">
</g>
      <g
         id="g4589">
</g>
      <g
         id="g4591">
</g>
      <g
         id="g4593">
</g>
      <g
         id="g4595">
</g>
      <g
         id="g4597">
</g>
      <g
         id="g4599">
</g>
      <g
         id="g4601">
</g>
      <g
         id="g4603">
</g>
      <g
         id="g4605">
</g>
      <g
         id="g4607">
</g>
      <g
         id="g4609">
</g>
      <g
         id="g4611">
</g>
      <g
         id="g4613">
</g>
      <text
         xml:space="preserve"
         style="font-style:normal;font-weight:normal;font-size:40px;line-height:125%;font-family:sans-serif;letter-spacing:0px;word-spacing:0px;fill:#000000;fill-opacity:1;stroke:none;stroke-width:1px;stroke-linecap:butt;stroke-linejoin:miter;stroke-opacity:1"
         x="185.64163"
         y="-1073.4364"
         id="text4839"><tspan
           sodipodi:role="line"
           id="tspan4837"
           x="185.64163"
           y="-1073.4364">App icon</tspan></text>
    </g>
    <g
       id="g4787"
       transform="matrix(0.35614384,0,0,0.35614384,69.653436,-201.33671)">
      <g
         id="g4709">
	<g
   id="g4697"
   transform="translate(-2442.9578,-970.97598)">
		<rect
   id="rect4663"
   height="32.922001"
   width="29.395"
   style="fill:#fdcc9b"
   y="148.231"
   x="84.550003" />

		<path
   id="path4665"
   d="m 84.551,152.108 c 0,0 12.365,7.874 29.395,6.05 V 148.23 H 84.551 Z"
   style="fill:#fcbc85"
   inkscape:connector-curvature="0" />

		<ellipse
   id="ellipse4667"
   ry="16.364"
   rx="14.343"
   cy="97.181"
   cx="42.164001"
   style="fill:#fcbc85" />

		<ellipse
   id="ellipse4669"
   ry="16.364"
   rx="14.343"
   cy="97.181"
   cx="156.332"
   style="fill:#fcbc85" />

		<path
   id="path4671"
   d="m 156.274,65.925 c 0,-24.103 -17.637,-41.741 -57.026,-41.741 -39.389,0 -57.026,17.637 -57.026,41.741 0,24.104 -4.115,87.597 57.026,87.597 61.141,0 57.026,-63.493 57.026,-87.597 z"
   style="fill:#fdcc9b"
   inkscape:connector-curvature="0" />

		<g
   id="g4689">
			<g
   id="g4677">
				<ellipse
   id="ellipse4673"
   ry="6.7610002"
   rx="6.1729999"
   cy="93.262001"
   cx="71.472"
   style="fill:#3b2519" />

				<circle
   id="circle4675"
   r="1.846"
   cy="90.277"
   cx="68.780998"
   style="fill:#ffffff" />

			</g>

			<path
   id="path4679"
   d="m 61.597,76.507 c 2.919,1.46 7.606,-4.96 18.335,0.625 1.956,1.018 3.123,-8.708 -8.377,-8.708 -9.958,0 -11.722,7.202 -9.958,8.083 z"
   style="fill:#51362a"
   inkscape:connector-curvature="0" />

			<g
   id="g4685">
				<ellipse
   id="ellipse4681"
   ry="6.7610002"
   rx="6.1729999"
   cy="93.262001"
   cx="127.786"
   style="fill:#3b2519" />

				<circle
   id="circle4683"
   r="1.846"
   cy="90.277"
   cx="125.095"
   style="fill:#ffffff" />

			</g>

			<path
   id="path4687"
   d="m 136.899,76.507 c -2.919,1.46 -7.606,-4.96 -18.335,0.625 -1.956,1.018 -3.123,-8.708 8.378,-8.708 9.957,0 11.72,7.202 9.957,8.083 z"
   style="fill:#51362a"
   inkscape:connector-curvature="0" />

		</g>

		<path
   id="path4691"
   d="m 99.248,117.043 c -6.1,0 -9.774,-4.556 -9.774,-2.352 0,2.205 1.764,6.394 9.774,6.394 8.01,0 9.774,-4.189 9.774,-6.394 0,-2.205 -3.675,2.352 -9.774,2.352 z"
   style="fill:#fcbc85"
   inkscape:connector-curvature="0" />

		<path
   id="path4693"
   d="m 99.248,137.313 c -2.11,0 -3.381,-1.576 -3.381,-0.813 0,0.763 0.61,2.211 3.381,2.211 2.771,0 3.38,-1.448 3.38,-2.211 0,-0.763 -1.271,0.813 -3.38,0.813 z"
   style="fill:#fcbc85"
   inkscape:connector-curvature="0" />

		<path
   id="path4695"
   d="m 99.248,131.696 c -9.668,0 -15.493,-3.937 -15.493,-2.939 0,0.998 2.796,4.924 15.493,4.924 12.697,0 15.493,-3.926 15.493,-4.924 -0.001,-0.998 -5.825,2.939 -15.493,2.939 z"
   style="fill:#f7945e"
   inkscape:connector-curvature="0" />

	</g>

	<path
   id="path4699"
   d="m -2343.7098,-809.51798 v 37.038 h -71.427 c 0,-14.992 37.623,-37.038 71.427,-37.038 z"
   style="fill:#f7941e"
   inkscape:connector-curvature="0" />

	<path
   id="path4701"
   d="m -2343.7098,-809.51798 v 37.038 h 71.427 c 0,-14.992 -37.623,-37.038 -71.427,-37.038 z"
   style="fill:#f7941e"
   inkscape:connector-curvature="0" />

	<path
   id="path4703"
   d="m -2343.7098,-809.51798 c -7.19,0 -14.552,1.005 -21.689,2.72 0.048,0.063 7.916,10.214 21.689,10.214 12.754,0 21.233,-8.693 22.462,-10.03 -7.378,-1.831 -15.012,-2.904 -22.462,-2.904 z"
   style="fill:#f36c21"
   inkscape:connector-curvature="0" />

	<path
   id="path4705"
   d="m -2358.4078,-808.23598 c 0,0 4.299,5.332 14.697,5.332 10.398,0 14.698,-5.332 14.698,-5.332 0,0 -15.248,-5.551 -29.395,0 z"
   style="fill:#fdcc9b"
   inkscape:connector-curvature="0" />

	<path
   id="path4707"
   d="m -2296.8258,-951.93498 c 0,0 -21.164,-26.896 -65.152,-16.755 -43.987,10.14 -47.283,36.596 -45.96,62.335 1.323,25.74 4.85,40.84 9.022,38.974 4.172,-1.867 2.001,-18.857 2.442,-22.778 0.441,-3.921 4.409,-21.653 31.162,-19.007 26.752,2.646 49.296,-7.055 49.296,-7.055 0,0 9.075,11.471 15.047,13.669 11.934,4.391 8.02,33.67 12.696,33.67 4.676,0 27.603,-67.621 -8.553,-83.053 z"
   style="fill:#51362a"
   inkscape:connector-curvature="0" />

<g
   id="g4918"
   transform="matrix(0.99054862,0,0,0.99054862,-2081.8265,-1115.0574)">
  <path
     id="path4841"
     d="m 512,256 c 0,75.97266 -33.09375,144.21875 -85.66016,191.08984 C 381.08594,487.46484 321.42187,512 256,512 190.57812,512 130.90625,487.46484 85.648438,447.08984 33.09375,400.20703 0,331.96484 0,256 0,114.61328 114.61328,0 256,0 397.38672,0 512,114.61328 512,256 Z m 0,0"
     inkscape:connector-curvature="0"
     style="fill:#ffe152" />
  <path
     id="path4843"
     d="M 426.33984,447.08984 C 381.08594,487.46484 321.42187,512 256,512 190.57812,512 130.90625,487.46484 85.648438,447.08984 c 1.277343,-5.5039 3.742187,-10.85547 7.265624,-15.97656 19.832028,-28.81641 73.328128,-50.53125 138.718748,-54.91016 7.96094,-0.53125 16.08985,-0.80078 24.36719,-0.80078 88.29297,0 160.99609,31.375 170.33984,71.6875 z m 0,0"
     inkscape:connector-curvature="0"
     style="fill:#854f89" />
  <path
     id="path4845"
     d="m 256,455.91016 c 0,0 -107.28125,3.99218 -163.085938,-24.79688 19.832028,-28.81641 73.328128,-50.53125 138.718748,-54.91016 z m 0,0"
     inkscape:connector-curvature="0"
     style="fill:#713775" />
  <path
     id="path4847"
     d="m 421.35937,167.06641 c -4.57421,-214.109379 -326.152339,-214.109379 -330.726558,0 -0.05078,2.33593 -0.07422,4.67968 -0.07422,7.02734 0,121.11719 66.738278,226.62891 165.437498,281.81641 98.69922,-55.1875 165.4375,-160.69922 165.4375,-281.81641 0,-2.34766 -0.0234,-4.69141 -0.0742,-7.02734 z m 0,0"
     inkscape:connector-curvature="0"
     style="fill:#f74f4f" />
  <path
     id="path4849"
     d="M 255.99609,455.91016 C 157.29687,400.71875 90.558594,295.20312 90.558594,174.08984 c 0,-2.35156 0.02344,-4.6914 0.07422,-7.01953 C 92.921875,60.007812 174.45312,6.488281 255.99609,6.488281 c -65.92187,0 -131.84375,53.519531 -133.6914,160.582029 -0.043,2.32813 -0.0625,4.66797 -0.0625,7.01953 0,121.11328 53.95703,226.62891 133.7539,281.82032 z m 0,0"
     inkscape:connector-curvature="0"
     style="fill:#dd3033" />
  <path
     id="path4851"
     d="m 375.21094,168.59375 c 0,38.22266 -17.98047,72.23437 -45.95313,94.04297 -20.20703,15.77734 -45.64062,25.17187 -73.25781,25.17187 -27.61719,0 -53.05078,-9.39453 -73.25781,-25.17187 -27.97266,-21.8086 -45.95313,-55.82031 -45.95313,-94.04297 0,-65.83984 53.3711,-119.210938 119.21094,-119.210938 65.83984,0 119.21094,53.371098 119.21094,119.210938 z m 0,0"
     inkscape:connector-curvature="0"
     style="fill:#dde8ed" />
  <path
     id="path4853"
     d="m 189.74609,200.94922 c 0,11.17969 -8.16406,20.44922 -18.85937,22.17187 -1.17188,0.1875 -2.3711,0.28516 -3.59766,0.28516 -12.40625,0 -22.46094,-10.05078 -22.46094,-22.45703 0,-12.40625 10.05469,-22.46094 22.46094,-22.46094 1.22656,0 2.42578,0.10156 3.59766,0.28906 10.69531,1.71875 18.85937,10.98828 18.85937,22.17188 z m 0,0"
     inkscape:connector-curvature="0"
     style="fill:#f6caae" />
  <path
     id="path4855"
     d="m 189.74609,200.94922 c 0,11.17969 -8.16406,20.44922 -18.85937,22.17187 -1.94531,-7.0664 -2.98047,-14.5 -2.98047,-22.17187 0,-7.67578 1.03516,-15.10938 2.98047,-22.17188 10.69531,1.71875 18.85937,10.98828 18.85937,22.17188 z m 0,0"
     inkscape:connector-curvature="0"
     style="fill:#eab599" />
  <path
     id="path4857"
     d="m 175.31641,200.94922 c 0,4.42969 -3.59375,8.02344 -8.02735,8.02344 -4.43359,0 -8.02734,-3.59375 -8.02734,-8.02344 0,-4.4336 3.59375,-8.02735 8.02734,-8.02735 4.4336,0 8.02735,3.59375 8.02735,8.02735 z m 0,0"
     inkscape:connector-curvature="0"
     style="fill:#eab599" />
  <path
     id="path4859"
     d="m 322.24609,200.94922 c 0,11.17969 8.16797,20.44922 18.85938,22.17187 1.17187,0.1875 2.37109,0.28516 3.59765,0.28516 12.41016,0 22.46094,-10.05078 22.46094,-22.45703 0,-12.40625 -10.05078,-22.46094 -22.46094,-22.46094 -1.22656,0 -2.42578,0.10156 -3.59765,0.28906 -10.69141,1.71875 -18.85938,10.98828 -18.85938,22.17188 z m 0,0"
     inkscape:connector-curvature="0"
     style="fill:#f6caae" />
  <g
     id="g4867"
     style="fill:#eab599">
    <path
       id="path4861"
       d="m 322.24609,200.94922 c 0,11.17969 8.16797,20.44922 18.85938,22.17187 1.94531,-7.0664 2.98047,-14.5 2.98047,-22.17187 0,-7.67578 -1.03516,-15.10938 -2.98047,-22.17188 -10.69141,1.71875 -18.85938,10.98828 -18.85938,22.17188 z m 0,0"
       inkscape:connector-curvature="0" />
    <path
       id="path4863"
       d="m 339.55859,157.19141 v 31.82031 c 0,41.58203 -30.375,76.08203 -70.15234,82.48047 -0.13281,0.0234 -0.27344,0.0469 -0.41016,0.0703 -4.23047,0.67578 -8.57031,1.00781 -13.0039,1.00781 -46.14453,0 -83.5586,-37.41015 -83.5586,-83.55859 V 157.1914 c 0,-9.71485 1.66016,-19.05469 4.72266,-27.73047 C 188.58203,96.941406 219.57031,73.625 255.99219,73.625 H 256 c 4.42578,0 8.77344,0.34375 13.01172,1.011719 39.96875,6.246093 70.54687,40.832031 70.54687,82.554691 z m 0,0"
       inkscape:connector-curvature="0" />
    <path
       id="path4865"
       d="m 352.73437,200.94922 c 0,4.42969 -3.59375,8.02344 -8.02734,8.02344 -4.43359,0 -8.02734,-3.59375 -8.02734,-8.02344 0,-4.4336 3.59375,-8.02735 8.02734,-8.02735 4.4336,0 8.02734,3.59375 8.02734,8.02735 z m 0,0"
       inkscape:connector-curvature="0" />
  </g>
  <path
     id="path4869"
     d="m 339.55859,157.19141 v 31.82031 c 0,41.58203 -30.375,76.08203 -70.15234,82.48047 -0.13281,0.0234 -0.27344,0.0469 -0.41016,0.0703 -39.96875,-6.24609 -70.53906,-40.83203 -70.53906,-82.55078 V 157.1914 c 0,-41.72266 30.57813,-76.308598 70.55469,-82.554691 39.96875,6.246093 70.54687,40.832031 70.54687,82.554691 z m 0,0"
     inkscape:connector-curvature="0"
     style="fill:#f6caae" />
  <path
     id="path4871"
     d="m 238.20312,184.14844 c 0,5.23437 -4.24609,9.47656 -9.48046,9.47656 -5.23438,0 -9.48047,-4.24219 -9.48047,-9.47656 0,-5.23828 4.24609,-9.48047 9.48047,-9.48047 5.23437,0 9.48046,4.24219 9.48046,9.48047 z m 0,0"
     inkscape:connector-curvature="0"
     style="fill:#3d4159" />
  <path
     id="path4873"
     d="m 292.75391,184.14844 c 0,5.23437 -4.2461,9.47656 -9.48047,9.47656 -5.23438,0 -9.48047,-4.24219 -9.48047,-9.47656 0,-5.23828 4.24609,-9.48047 9.48047,-9.48047 5.23437,0 9.48047,4.24219 9.48047,9.48047 z m 0,0"
     inkscape:connector-curvature="0"
     style="fill:#3d4159" />
  <path
     id="path4875"
     d="m 236.26953,182.47266 c 0,2.24218 -1.82031,4.0625 -4.0625,4.0625 -2.24219,0 -4.0625,-1.82032 -4.0625,-4.0625 0,-2.24219 1.82031,-4.0586 4.0625,-4.0586 2.24219,0 4.0625,1.81641 4.0625,4.0586 z m 0,0"
     inkscape:connector-curvature="0"
     style="fill:#ffffff" />
  <path
     id="path4877"
     d="m 291.28516,182.47266 c 0,2.24218 -1.82032,4.0625 -4.0625,4.0625 -2.24219,0 -4.0586,-1.82032 -4.0586,-4.0625 0,-2.24219 1.81641,-4.0586 4.0586,-4.0586 2.24218,0 4.0625,1.81641 4.0625,4.0586 z m 0,0"
     inkscape:connector-curvature="0"
     style="fill:#ffffff" />
  <path
     id="path4879"
     d="m 265.47656,204.29687 h -18.95703 c -2.25781,0 -4.08984,-1.83203 -4.08984,-4.08984 0,-2.25781 1.83203,-4.08984 4.08984,-4.08984 h 18.95703 c 2.25781,0 4.08985,1.83203 4.08985,4.08984 0,2.25781 -1.83203,4.08984 -4.08985,4.08984 z m 0,0"
     inkscape:connector-curvature="0"
     style="fill:#eab599" />
  <path
     id="path4881"
     d="m 255.99609,230.16797 c -6.99609,0 -13.99218,-1.75391 -20.37109,-5.26172 -1.79688,-0.98828 -2.45313,-3.25 -1.46484,-5.04688 0.98828,-1.80078 3.24609,-2.45703 5.04687,-1.46875 10.51172,5.78125 23.06641,5.78125 33.58203,0 1.79688,-0.98828 4.0586,-0.33203 5.04688,1.46875 0.98828,1.80079 0.33203,4.0586 -1.46485,5.04688 -6.3789,3.50781 -13.375,5.26172 -20.375,5.26172 z m 0,0"
     inkscape:connector-curvature="0"
     style="fill:#eab599" />
  <path
     id="path4883"
     d="m 339.55859,128.3125 v 32.59766 h -15.55078 v -25.52735 l -112.26562,-20.85937 -23.75391,-4.41797 v 50.80469 H 172.43359 V 128.3125 c 0,-37.15625 30.1211,-67.277344 67.26953,-67.277344 h 32.58594 c 0.88672,0 1.77344,0.01563 2.65625,0.0625 35.91797,1.382813 64.61328,30.941406 64.61328,67.214844 z m 0,0"
     inkscape:connector-curvature="0"
     style="fill:#2a2f4f" />
  <path
     id="path4885"
     d="m 339.55859,128.3125 v 32.59766 H 324.00781 V 135.38281 L 211.74219,114.52344 c 6.1875,-29.71094 31.96093,-52.222659 63.20312,-53.425784 35.91797,1.382813 64.61328,30.941406 64.61328,67.214844 z m 0,0"
     inkscape:connector-curvature="0"
     style="fill:#3d4159" />
</g>
<text
   xml:space="preserve"
   style="font-style:normal;font-weight:normal;font-size:29.71645737px;line-height:125%;font-family:sans-serif;letter-spacing:0px;word-spacing:0px;fill:#000000;fill-opacity:1;stroke:none;stroke-width:0.74291146px;stroke-linecap:butt;stroke-linejoin:miter;stroke-opacity:1"
   x="-1952.6198"
   y="-1165.6832"
   id="text4922"><tspan
     sodipodi:role="line"
     x="-1952.6198"
     y="-1165.6832"
     style="stroke-width:0.74291146px"
     id="tspan4924">Child location</tspan></text>
<g
   id="g5059"
   transform="matrix(0.99054862,0,0,0.99054862,-1460.249,-1120.583)">
  <path
     id="path4928"
     d="M 512,256 C 512,387.5 412.85156,495.84766 285.22656,510.34766 275.63281,511.4375 265.88281,512 256,512 202.01953,512 151.96094,495.30078 110.67578,466.77734 43.8125,420.59375 0,343.41797 0,256 0,114.61328 114.61328,0 256,0 397.38672,0 512,114.61328 512,256 Z m 0,0"
     inkscape:connector-curvature="0"
     style="fill:#66baed" />
  <path
     id="path4930"
     d="m 285.25781,509.14844 c 0,0.39453 -0.0117,0.80468 -0.0312,1.19922 C 275.63281,511.4375 265.88281,512 256,512 c -53.98047,0 -104.03906,-16.69922 -145.32422,-45.22266 18.27344,-6.85547 41.12891,-10.91797 65.91016,-10.91797 60.01953,0 108.67187,23.85157 108.67187,53.28907 z m 0,0"
     inkscape:connector-curvature="0"
     style="fill:#2ba1cf" />
  <path
     id="path4932"
     d="m 470.21484,296.78906 c 0,-21.48437 -35.51953,-38.90234 -79.33593,-38.90234 -43.8125,0 -79.33204,17.41797 -79.33204,38.90234 0,21.48828 35.51954,38.90625 79.33204,38.90625 43.8164,0 79.33593,-17.41797 79.33593,-38.90625 z m 0,0"
     inkscape:connector-curvature="0"
     style="fill:#2ba1cf" />
  <path
     id="path4934"
     d="m 500.08203,106.04688 c -3.02344,-141.394536 -215.38281,-141.394536 -218.40234,0 -0.0352,1.54296 -0.0508,3.08593 -0.0508,4.63671 0,79.98438 44.07421,149.66016 109.25,186.10547 65.17968,-36.44531 109.25,-106.12109 109.25,-186.10547 0,-1.55078 -0.0156,-3.09375 -0.0469,-4.63671 z m 0,0"
     inkscape:connector-curvature="0"
     style="fill:#ffe152" />
  <path
     id="path4936"
     d="m 469.60547,107.05469 c 0,25.23828 -11.875,47.69922 -30.34766,62.10156 -13.34375,10.41797 -30.13672,16.62109 -48.375,16.62109 -18.23828,0 -35.03515,-6.20312 -48.3789,-16.62109 -18.47266,-14.40234 -30.34766,-36.85938 -30.34766,-62.10156 0,-43.480471 35.24609,-78.726565 78.72656,-78.726565 43.47656,0 78.72266,35.246094 78.72266,78.726565 z m 0,0"
     inkscape:connector-curvature="0"
     style="fill:#dde8ed" />
  <path
     id="path4938"
     d="M 332.74219,155.62891 V 91.640625 c 0,-6.503906 1.08593,-12.871094 3.22656,-18.933594 8.00781,-22.789062 29.63281,-38.105469 53.8125,-38.105469 2.99219,0 5.98047,0.230469 8.88672,0.6875 13.28125,2.078126 25.46875,8.859376 34.30469,19.09375 8.92968,10.34375 13.84765,23.574219 13.84765,37.257813 v 63.988285"
     inkscape:connector-curvature="0"
     style="fill:#3d4159" />
  <path
     id="path4940"
     d="m 356.20703,94.140625 c 0,22.632815 13.25391,48.820315 20.53125,61.488285 H 332.74219 V 91.640625 c 0,-6.5 1.08593,-12.871094 3.22656,-18.933594 7.95703,-22.660156 29.38672,-37.929687 53.39453,-38.101562 -17.53516,0.4375 -33.15625,28.570312 -33.15625,59.535156 z m 0,0"
     inkscape:connector-curvature="0"
     style="fill:#2a2f4f" />
  <path
     id="path4942"
     d="m 348.25781,119.06641 c 0,7.00781 -5.12109,12.82031 -11.82422,13.89843 -0.73437,0.11719 -1.48828,0.17969 -2.2539,0.17969 -7.77735,0 -14.07813,-6.30078 -14.07813,-14.07812 0,-7.77735 6.30078,-14.07813 14.07813,-14.07813 0.76562,0 1.51953,0.0625 2.2539,0.1836 6.70313,1.07812 11.82422,6.88671 11.82422,13.89453 z m 0,0"
     inkscape:connector-curvature="0"
     style="fill:#f6caae" />
  <g
     id="g4950"
     style="fill:#eab599">
    <path
       id="path4944"
       d="m 348.25781,119.06641 c 0,7.00781 -5.12109,12.82031 -11.82422,13.89843 -1.21875,-4.42968 -1.86718,-9.08984 -1.86718,-13.89843 0,-4.8086 0.64843,-9.46875 1.86718,-13.89453 6.70313,1.07812 11.82422,6.88671 11.82422,13.89453 z m 0,0"
       inkscape:connector-curvature="0" />
    <path
       id="path4946"
       d="m 339.21094,119.06641 c 0,2.78125 -2.25391,5.03125 -5.03125,5.03125 -2.78125,0 -5.03125,-2.25 -5.03125,-5.03125 0,-2.77735 2.25,-5.03125 5.03125,-5.03125 2.77734,0 5.03125,2.2539 5.03125,5.03125 z m 0,0"
       inkscape:connector-curvature="0" />
    <path
       id="path4948"
       d="m 425.92969,101.08984 v 48.39453 c -7.48047,7.13672 -17.07032,12.08204 -27.74219,13.80079 -0.082,0.0156 -0.17188,0.0273 -0.25781,0.043 -2.64844,0.42579 -5.3711,0.63282 -8.14844,0.63282 -28.92578,0 -52.37891,-23.44922 -52.37891,-52.375 V 91.640625 c 0,-2.554687 0.1836,-5.066406 0.53907,-7.519531 12.46093,8.960937 30.32812,8.074218 41.71093,-2.6875 3.76953,-3.558594 6.39063,-7.800782 7.8711,-12.296875 0.82422,7.875 4.42968,15.542969 10.8125,21.578125 7.60156,7.175781 17.64453,10.636716 27.59375,10.374996 z m 0,0"
       inkscape:connector-curvature="0" />
  </g>
  <path
     id="path4952"
     d="m 425.92969,101.08984 v 48.39453 c -7.48047,7.13672 -17.07032,12.08204 -27.74219,13.80079 -0.082,0.0156 -0.17188,0.0273 -0.25781,0.043 -25.05078,-3.91406 -44.21485,-25.59375 -44.21485,-51.74218 V 91.640625 c 0,-0.53125 0.0117,-1.058594 0.0274,-1.585937 9.23828,0.949218 18.82812,-1.921876 25.91015,-8.621094 3.77344,-3.558594 6.39063,-7.800782 7.875,-12.296875 0.82422,7.875 4.42578,15.542969 10.8086,21.578125 7.60156,7.175781 17.64453,10.636716 27.59375,10.374996 z m 0,0"
     inkscape:connector-curvature="0"
     style="fill:#f6caae" />
  <path
     id="path4954"
     d="m 417.91016,107.16406 c 0,-4.80468 -3.89454,-8.699216 -8.69922,-8.699216 -4.80469,0 -8.69922,3.894536 -8.69922,8.699216"
     inkscape:connector-curvature="0"
     style="fill:#eab599" />
  <path
     id="path4956"
     d="m 379.05469,107.16406 c 0,-4.80468 -3.89063,-8.699216 -8.69532,-8.699216 -4.80468,0 -8.69921,3.894536 -8.69921,8.699216"
     inkscape:connector-curvature="0"
     style="fill:#eab599" />
  <path
     id="path4958"
     d="m 376.30078,110.86719 c 0,3.28125 -2.66016,5.9414 -5.94141,5.9414 -3.28125,0 -5.9414,-2.66015 -5.9414,-5.9414 0,-3.28125 2.66015,-5.94141 5.9414,-5.94141 3.28125,0 5.94141,2.66016 5.94141,5.94141 z m 0,0"
     inkscape:connector-curvature="0"
     style="fill:#3d4159" />
  <path
     id="path4960"
     d="m 415.15234,110.86719 c 0,3.28125 -2.66015,5.9414 -5.9414,5.9414 -3.28125,0 -5.94141,-2.66015 -5.94141,-5.9414 0,-3.28125 2.66016,-5.94141 5.94141,-5.94141 3.28125,0 5.9414,2.66016 5.9414,5.94141 z m 0,0"
     inkscape:connector-curvature="0"
     style="fill:#3d4159" />
  <path
     id="path4962"
     d="m 395.72656,125.82813 h -11.88281 c -1.41797,0 -2.5625,-1.14844 -2.5625,-2.56641 0,-1.41406 1.14453,-2.5625 2.5625,-2.5625 h 11.88281 c 1.41797,0 2.5625,1.14844 2.5625,2.5625 0,1.41797 -1.14844,2.56641 -2.5625,2.56641 z m 0,0"
     inkscape:connector-curvature="0"
     style="fill:#eab599" />
  <path
     id="path4964"
     d="m 389.78516,142.04297 c -4.38672,0 -8.77344,-1.10156 -12.76954,-3.29688 -1.1289,-0.62109 -1.53906,-2.03515 -0.92187,-3.16406 0.62109,-1.12891 2.03906,-1.53906 3.16406,-0.91797 6.58985,3.6211 14.46094,3.6211 21.05078,0 1.12891,-0.62109 2.54297,-0.21094 3.16407,0.91797 0.62109,1.12891 0.20703,2.54297 -0.91797,3.16406 -4,2.19922 -8.38281,3.29688 -12.76953,3.29688 z m 0,0"
     inkscape:connector-curvature="0"
     style="fill:#eab599" />
  <path
     id="path4966"
     d="m 375.08984,109.81641 c 0,1.40625 -1.14062,2.54687 -2.54687,2.54687 -1.40625,0 -2.54688,-1.14062 -2.54688,-2.54687 0,-1.40625 1.14063,-2.54688 2.54688,-2.54688 1.40625,0 2.54687,1.14063 2.54687,2.54688 z m 0,0"
     inkscape:connector-curvature="0"
     style="fill:#ffffff" />
  <path
     id="path4968"
     d="m 414.23437,109.81641 c 0,1.40625 -1.14062,2.54687 -2.54687,2.54687 -1.40625,0 -2.54688,-1.14062 -2.54688,-2.54687 0,-1.40625 1.14063,-2.54688 2.54688,-2.54688 1.40625,0 2.54687,1.14063 2.54687,2.54688 z m 0,0"
     inkscape:connector-curvature="0"
     style="fill:#ffffff" />
  <path
     id="path4970"
     d="m 425.43359,125.33984 c 0,3.60157 -2.92187,6.52344 -6.52343,6.52344 -3.60547,0 -6.52735,-2.92187 -6.52735,-6.52344 0,-3.60546 2.92188,-6.52734 6.52735,-6.52734 3.60156,0 6.52343,2.92188 6.52343,6.52734 z m 0,0"
     inkscape:connector-curvature="0"
     style="fill:#eab599" />
  <path
     id="path4972"
     d="m 367.17969,125.33984 c 0,3.60157 -2.92188,6.52344 -6.52344,6.52344 -3.60547,0 -6.52344,-2.92187 -6.52344,-6.52344 0,-3.60546 2.91797,-6.52734 6.52344,-6.52734 3.60156,0 6.52344,2.92188 6.52344,6.52734 z m 0,0"
     inkscape:connector-curvature="0"
     style="fill:#eab599" />
  <path
     id="path4974"
     d="m 331.79297,240.25 c -4.13672,-193.671875 -295.019532,-193.671875 -299.160158,0 -0.04297,2.11328 -0.06641,4.23047 -0.06641,6.35547 0,109.55859 60.371094,204.99609 149.648438,254.91797 89.27735,-49.92188 149.64453,-145.36328 149.64453,-254.91797 0,-2.125 -0.0234,-4.24219 -0.0664,-6.35547 z m 0,0"
     inkscape:connector-curvature="0"
     style="fill:#f74f4f" />
  <path
     id="path4976"
     d="m 290.05078,241.63281 c 0,34.57422 -16.26562,65.33985 -41.57031,85.06641 -18.27735,14.26953 -41.28516,22.76562 -66.26563,22.76562 -24.98047,0 -47.98437,-8.49609 -66.26172,-22.76562 -25.304682,-19.72656 -41.570308,-50.49219 -41.570308,-85.06641 0,-59.55469 48.277348,-107.83203 107.832028,-107.83203 59.5586,0 107.83594,48.27734 107.83594,107.83203 z m 0,0"
     inkscape:connector-curvature="0"
     style="fill:#dde8ed" />
  <path
     id="path4978"
     d="m 122.28906,270.89844 c 0,10.11328 -7.39062,18.5 -17.0625,20.05468 -1.05859,0.17188 -2.14453,0.26172 -3.2539,0.26172 -11.22266,0 -20.31641,-9.09375 -20.31641,-20.3164 0,-11.22266 9.09375,-20.31641 20.31641,-20.31641 1.10937,0 2.19531,0.0898 3.2539,0.25781 9.67188,1.5586 17.0625,9.94532 17.0625,20.0586 z m 0,0"
     inkscape:connector-curvature="0"
     style="fill:#f6caae" />
  <path
     id="path4980"
     d="m 122.28906,270.89844 c 0,10.11328 -7.39062,18.5 -17.0625,20.05468 -1.75781,-6.39062 -2.69531,-13.11328 -2.69531,-20.05468 0,-6.94141 0.9375,-13.66407 2.69531,-20.05469 9.67188,1.55469 17.0625,9.94141 17.0625,20.05469 z m 0,0"
     inkscape:connector-curvature="0"
     style="fill:#eab599" />
  <path
     id="path4982"
     d="m 109.23438,270.89844 c 0,4.01172 -3.25391,7.26172 -7.26172,7.26172 -4.011722,0 -7.261722,-3.25 -7.261722,-7.26172 0,-4.01172 3.25,-7.26172 7.261722,-7.26172 4.00781,0 7.26172,3.25 7.26172,7.26172 z m 0,0"
     inkscape:connector-curvature="0"
     style="fill:#eab599" />
  <path
     id="path4984"
     d="m 242.13672,270.89844 c 0,10.11328 7.39062,18.5 17.0625,20.05468 1.05859,0.17188 2.14453,0.26172 3.2539,0.26172 11.22266,0 20.31641,-9.09375 20.31641,-20.3164 0,-11.22266 -9.09375,-20.31641 -20.31641,-20.31641 -1.10937,0 -2.19531,0.0898 -3.2539,0.25781 -9.67188,1.5586 -17.0625,9.94532 -17.0625,20.0586 z m 0,0"
     inkscape:connector-curvature="0"
     style="fill:#f6caae" />
  <path
     id="path4986"
     d="m 242.13672,270.89844 c 0,10.11328 7.39062,18.5 17.0625,20.05468 1.75781,-6.39062 2.69531,-13.11328 2.69531,-20.05468 0,-6.94141 -0.9375,-13.66407 -2.69531,-20.05469 -9.67188,1.55469 -17.0625,9.94141 -17.0625,20.05469 z m 0,0"
     inkscape:connector-curvature="0"
     style="fill:#eab599" />
  <path
     id="path4988"
     d="m 257.80078,231.32031 v 28.78125 c 0,37.61328 -27.48047,68.82031 -63.45703,74.60938 -0.12109,0.0195 -0.25,0.0391 -0.37109,0.0625 -3.82813,0.60937 -7.75391,0.91406 -11.76172,0.91406 -41.74219,0 -75.58594,-33.84375 -75.58594,-75.58594 v -28.78125 c 0,-8.78906 1.5,-17.23828 4.27344,-25.08594 10.33593,-29.41406 38.36718,-50.5039 71.3125,-50.5039 h 0.004 c 4.00391,0 7.9375,0.30859 11.76953,0.91406 36.15625,5.64844 63.81641,36.93359 63.81641,74.67578 z m 0,0"
     inkscape:connector-curvature="0"
     style="fill:#eab599" />
  <path
     id="path4990"
     d="m 269.71484,270.89844 c 0,4.01172 -3.25,7.26172 -7.26172,7.26172 -4.00781,0 -7.26171,-3.25 -7.26171,-7.26172 0,-4.01172 3.2539,-7.26172 7.26171,-7.26172 4.01172,0 7.26172,3.25 7.26172,7.26172 z m 0,0"
     inkscape:connector-curvature="0"
     style="fill:#eab599" />
  <path
     id="path4992"
     d="m 257.80078,231.32031 v 28.78125 c 0,37.61328 -27.48047,68.82031 -63.45703,74.60938 -0.12109,0.0195 -0.25,0.0391 -0.37109,0.0625 -36.15625,-5.65235 -63.8086,-36.9375 -63.8086,-74.67188 v -28.78125 c 0,-37.74219 27.66016,-69.02734 63.82422,-74.67578 36.15234,5.64844 63.8125,36.93359 63.8125,74.67578 z m 0,0"
     inkscape:connector-curvature="0"
     style="fill:#f6caae" />
  <path
     id="path4994"
     d="m 166.11719,255.69922 c 0,4.73828 -3.83985,8.57812 -8.57422,8.57812 -4.73828,0 -8.57422,-3.83984 -8.57422,-8.57812 0,-4.73438 3.83594,-8.57422 8.57422,-8.57422 4.73437,0 8.57422,3.83984 8.57422,8.57422 z m 0,0"
     inkscape:connector-curvature="0"
     style="fill:#3d4159" />
  <path
     id="path4996"
     d="m 215.46094,255.69922 c 0,4.73828 -3.83985,8.57812 -8.57422,8.57812 -4.73438,0 -8.57422,-3.83984 -8.57422,-8.57812 0,-4.73438 3.83984,-8.57422 8.57422,-8.57422 4.73437,0 8.57422,3.83984 8.57422,8.57422 z m 0,0"
     inkscape:connector-curvature="0"
     style="fill:#3d4159" />
  <path
     id="path4998"
     d="m 164.36719,254.1875 c 0,2.02734 -1.64453,3.67187 -3.67188,3.67187 -2.03125,0 -3.67578,-1.64453 -3.67578,-3.67187 0,-2.03125 1.64453,-3.67578 3.67578,-3.67578 2.02735,0 3.67188,1.64453 3.67188,3.67578 z m 0,0"
     inkscape:connector-curvature="0"
     style="fill:#ffffff" />
  <path
     id="path5000"
     d="m 214.13281,254.1875 c 0,2.02734 -1.64453,3.67187 -3.67187,3.67187 -2.03125,0 -3.67578,-1.64453 -3.67578,-3.67187 0,-2.03125 1.64453,-3.67578 3.67578,-3.67578 2.02734,0 3.67187,1.64453 3.67187,3.67578 z m 0,0"
     inkscape:connector-curvature="0"
     style="fill:#ffffff" />
  <path
     id="path5002"
     d="m 190.78906,273.92578 h -17.14844 c -2.04296,0 -3.69921,-1.65625 -3.69921,-3.69922 0,-2.03906 1.65625,-3.69531 3.69921,-3.69531 h 17.14844 c 2.04297,0 3.69922,1.65625 3.69922,3.69531 0,2.04297 -1.65625,3.69922 -3.69922,3.69922 z m 0,0"
     inkscape:connector-curvature="0"
     style="fill:#eab599" />
  <path
     id="path5004"
     d="m 182.21484,297.32812 c -6.32812,0 -12.66015,-1.58593 -18.42968,-4.75781 -1.625,-0.89453 -2.21875,-2.9375 -1.32422,-4.5664 0.89453,-1.625 2.9375,-2.21875 4.5664,-1.32422 9.50782,5.22656 20.86328,5.22656 30.375,0 1.62891,-0.89453 3.67188,-0.30078 4.56641,1.32422 0.89453,1.6289 0.30078,3.67187 -1.32813,4.5664 -5.76953,3.17188 -12.09765,4.75781 -18.42578,4.75781 z m 0,0"
     inkscape:connector-curvature="0"
     style="fill:#eab599" />
  <path
     id="path5006"
     d="m 257.80078,205.19531 v 29.48828 h -14.07031 v -23.08984 l -101.54688,-18.87109 -21.48828,-3.9961 v 45.95703 h -14.0664 v -29.48828 c 0,-33.60937 27.24218,-60.85156 60.84765,-60.85156 h 29.47656 c 0.80079,0 1.60157,0.0117 2.40235,0.0508 32.48828,1.25 58.44531,27.99219 58.44531,60.80078 z m 0,0"
     inkscape:connector-curvature="0"
     style="fill:#2a2f4f" />
  <path
     id="path5008"
     d="m 257.80078,205.19531 v 29.48828 H 243.73047 V 211.59375 L 142.18359,192.72266 c 5.59375,-26.875 28.91016,-47.23829 57.16797,-48.32813 32.49219,1.25 58.44922,27.99219 58.44922,60.80078 z m 0,0"
     inkscape:connector-curvature="0"
     style="fill:#3d4159" />
</g>
<text
   id="text5063"
   y="-1164.1823"
   x="-1361.2621"
   style="font-style:normal;font-weight:normal;font-size:29.71645737px;line-height:125%;font-family:sans-serif;letter-spacing:0px;word-spacing:0px;fill:#000000;fill-opacity:1;stroke:none;stroke-width:0.74291146px;stroke-linecap:butt;stroke-linejoin:miter;stroke-opacity:1"
   xml:space="preserve"><tspan
     id="tspan5061"
     style="stroke-width:0.74291146px"
     y="-1164.1823"
     x="-1361.2621"
     sodipodi:role="line">Child location</tspan></text>
<rect
   style="opacity:1;fill:#cccccc;fill-opacity:1;stroke:none;stroke-width:6.21649742;stroke-miterlimit:4;stroke-dasharray:none;stroke-opacity:1"
   id="rect5065"
   width="1684.7125"
   height="4492.5669"
   x="2030.334"
   y="-3485.1963"
   ry="4.7259054" />
</g>
      <g
         id="g4711">
</g>
      <g
         id="g4713">
</g>
      <g
         id="g4715">
</g>
      <g
         id="g4717">
</g>
      <g
         id="g4719">
</g>
      <g
         id="g4721">
</g>
      <g
         id="g4723">
</g>
      <g
         id="g4725">
</g>
      <g
         id="g4727">
</g>
      <g
         id="g4729">
</g>
      <g
         id="g4731">
</g>
      <g
         id="g4733">
</g>
      <g
         id="g4735">
</g>
      <g
         id="g4737">
</g>
      <g
         id="g4739">
</g>
    </g>
  </g>
</svg>
