<?xml version="1.0" encoding="iso-8859-1"?>
<!-- Generator: Adobe Illustrator 19.0.0, SVG Export Plug-In . SVG Version: 6.00 Build 0)  -->
<svg version="1.1" id="Layer_1" xmlns="http://www.w3.org/2000/svg" xmlns:xlink="http://www.w3.org/1999/xlink" x="0px" y="0px"
	 viewBox="0 0 512 512" style="enable-background:new 0 0 512 512;" xml:space="preserve">
<g>
	<path style="fill:#ECF0F1;" d="M379.924,512H149.727c-14.442,0-26.138-11.705-26.138-26.147V26.147
		C123.588,11.705,135.285,0,149.727,0h230.197c14.442,0,26.147,11.705,26.147,26.147v459.705
		C406.071,500.295,394.366,512,379.924,512"/>
	<polygon style="fill:#38454F;" points="123.584,441.379 406.067,441.379 406.067,52.966 123.584,52.966 	"/>
	<g>
		<path style="fill:#546A79;" d="M300.136,35.31h-44.138c-4.882,0-8.828-3.946-8.828-8.828s3.946-8.828,8.828-8.828h44.138
			c4.882,0,8.828,3.946,8.828,8.828S305.017,35.31,300.136,35.31"/>
		<path style="fill:#546A79;" d="M229.515,35.31h-8.828c-4.882,0-8.828-3.946-8.828-8.828s3.946-8.828,8.828-8.828h8.828
			c4.882,0,8.828,3.946,8.828,8.828S234.397,35.31,229.515,35.31"/>
	</g>
	<g>
		<path style="fill:#BDC3C7;" d="M114.756,97.103c-4.882,0-8.828-3.946-8.828-8.828v-8.828c0-4.882,3.946-8.828,8.828-8.828
			c4.882,0,8.828,3.946,8.828,8.828v8.828C123.584,93.158,119.638,97.103,114.756,97.103"/>
		<path style="fill:#BDC3C7;" d="M114.756,132.414c-4.882,0-8.828-3.946-8.828-8.828v-8.828c0-4.882,3.946-8.828,8.828-8.828
			c4.882,0,8.828,3.946,8.828,8.828v8.828C123.584,128.468,119.638,132.414,114.756,132.414"/>
		<path style="fill:#BDC3C7;" d="M114.756,167.724c-4.882,0-8.828-3.946-8.828-8.828v-8.828c0-4.882,3.946-8.828,8.828-8.828
			c4.882,0,8.828,3.946,8.828,8.828v8.828C123.584,163.778,119.638,167.724,114.756,167.724"/>
		<path style="fill:#BDC3C7;" d="M291.308,476.69c0,14.627-11.855,26.483-26.483,26.483c-14.627,0-26.483-11.855-26.483-26.483
			c0-14.627,11.855-26.483,26.483-26.483C279.453,450.207,291.308,462.062,291.308,476.69"/>
	</g>
	<path style="fill:#F0C419;" d="M337.791,296.139c-6.453-12.2-30.252-26.147-30.252-26.147c-5.385-3.063-11.882-3.407-14.954,2.066
		c0,0-7.733,9.269-9.702,10.602c-8.986,6.091-17.302,5.853-25.706-2.551l-19.527-19.518l-19.527-19.527
		c-8.395-8.404-8.633-16.719-2.542-25.706c1.333-1.969,10.602-9.702,10.602-9.702c5.473-3.072,5.129-9.569,2.057-14.954
		c0,0-13.948-23.799-26.138-30.252c-5.191-2.745-11.555-1.783-15.713,2.366l-8.616,8.625
		c-27.357,27.348-13.886,58.227,13.462,85.575l24.991,25l25,24.991c27.348,27.348,58.227,40.819,85.575,13.462l8.625-8.625
		C339.574,307.694,340.536,301.33,337.791,296.139"/>
	<g>
		<path style="fill:#24AE5F;" d="M255.998,176.552c-4.882,0-8.828-3.955-8.828-8.828c0-14.601-11.882-26.483-26.483-26.483
			c-4.882,0-8.828-3.955-8.828-8.828c0-4.873,3.946-8.828,8.828-8.828c24.338,0,44.138,19.8,44.138,44.138
			C264.825,172.597,260.879,176.552,255.998,176.552"/>
		<path style="fill:#24AE5F;" d="M361.929,282.483c-4.882,0-8.828-3.955-8.828-8.828c0-14.601-11.882-26.483-26.483-26.483
			c-4.882,0-8.828-3.955-8.828-8.828c0-4.873,3.946-8.828,8.828-8.828c24.338,0,44.138,19.8,44.138,44.138
			C370.756,278.528,366.81,282.483,361.929,282.483"/>
	</g>
</g>
<g>
</g>
<g>
</g>
<g>
</g>
<g>
</g>
<g>
</g>
<g>
</g>
<g>
</g>
<g>
</g>
<g>
</g>
<g>
</g>
<g>
</g>
<g>
</g>
<g>
</g>
<g>
</g>
<g>
</g>
</svg>
