<?xml version="1.0" encoding="iso-8859-1"?>
<!-- Generator: Adobe Illustrator 19.0.0, SVG Export Plug-In . SVG Version: 6.00 Build 0)  -->
<svg version="1.1" id="Layer_1" xmlns="http://www.w3.org/2000/svg" xmlns:xlink="http://www.w3.org/1999/xlink" x="0px" y="0px"
	 viewBox="0 0 512 512" style="enable-background:new 0 0 512 512;" xml:space="preserve">
<g>
	<path style="fill:#ECF0F1;" d="M66.207,414.897v70.956c0,14.442,11.705,26.147,26.147,26.147h230.188
		c14.442,0,26.147-11.705,26.147-26.147v-70.956H66.207z"/>
	<path style="fill:#38454F;" d="M322.546,0H92.349C77.916,0,66.21,11.705,66.21,26.147v388.749h282.483V291.125V88.276V26.147
		C348.693,11.705,336.988,0,322.546,0"/>
	<path style="fill:#BDC3C7;" d="M215.553,476.69h-16.207c-5.279,0-9.551-4.273-9.551-9.551v-16.207c0-5.279,4.273-9.551,9.551-9.551
		h16.207c5.279,0,9.551,4.273,9.551,9.551v16.207C225.104,472.417,220.832,476.69,215.553,476.69"/>
	<path style="fill:#263138;" d="M136.828,61.793c4.882,0,8.828-3.946,8.828-8.828s-3.946-8.828-8.828-8.828H66.207v17.655H136.828z"
		/>
	<path style="fill:#4482C3;" d="M445.793,164.782c0-52.886-44.968-95.594-99.84-94.129c-50.661,1.359-92.893,42.284-94.323,91.401
		c-0.627,21.23,6.038,40.898,17.708,56.885c18.406,25.212,36.334,50.741,50.582,78.371l28.769,55.79l30.649-59.436
		c13.489-26.165,30.543-50.317,48.199-74.046C439.013,204.188,445.793,185.271,445.793,164.782"/>
	<path style="fill:#FFFFFF;" d="M384,158.897c0,19.5-15.81,35.31-35.31,35.31c-19.5,0-35.31-15.81-35.31-35.31
		s15.81-35.31,35.31-35.31C368.19,123.586,384,139.396,384,158.897"/>
</g>
<g>
</g>
<g>
</g>
<g>
</g>
<g>
</g>
<g>
</g>
<g>
</g>
<g>
</g>
<g>
</g>
<g>
</g>
<g>
</g>
<g>
</g>
<g>
</g>
<g>
</g>
<g>
</g>
<g>
</g>
</svg>
