<?xml version="1.0" encoding="iso-8859-1"?>
<!-- Generator: Adobe Illustrator 19.0.0, SVG Export Plug-In . SVG Version: 6.00 Build 0)  -->
<svg version="1.1" id="Layer_1" xmlns="http://www.w3.org/2000/svg" xmlns:xlink="http://www.w3.org/1999/xlink" x="0px" y="0px"
	 viewBox="0 0 512 512" style="enable-background:new 0 0 512 512;" xml:space="preserve">
<g>
	<path style="fill:#ECF0F1;" d="M373.485,512H147.19c-14.188,0-25.695-11.507-25.695-25.704V34.382
		c0-14.197,11.507-25.704,25.695-25.704h226.295c14.197,0,25.704,11.507,25.704,25.704v451.914
		C399.189,500.493,387.682,512,373.485,512"/>
	<polygon style="fill:#38454F;" points="121.491,442.576 399.186,442.576 399.186,60.746 121.491,60.746 	"/>
	<path style="fill:#894B9D;" d="M34.686,43.39c3.298,2.473,6.231,5.415,8.704,8.704c2.473-3.289,5.406-6.231,8.704-8.704
		c-3.298-2.473-6.231-5.415-8.704-8.704C40.917,37.975,37.984,40.917,34.686,43.39 M43.39,86.78c-4.799,0-8.678-3.888-8.678-8.678
		c0-14.353-11.681-26.034-26.034-26.034C3.879,52.068,0,48.18,0,43.39s3.879-8.678,8.678-8.678
		c14.353,0,26.034-11.681,26.034-26.034C34.712,3.888,38.591,0,43.39,0s8.678,3.888,8.678,8.678
		c0,14.353,11.681,26.034,26.034,26.034c4.799,0,8.678,3.888,8.678,8.678s-3.879,8.678-8.678,8.678
		c-14.353,0-26.034,11.681-26.034,26.034C52.068,82.892,48.189,86.78,43.39,86.78"/>
	<g>
		<path style="fill:#E57E25;" d="M468.61,173.559c-4.799,0-8.678-3.888-8.678-8.678v-34.712c0-4.79,3.879-8.678,8.678-8.678
			s8.678,3.888,8.678,8.678v34.712C477.288,169.672,473.409,173.559,468.61,173.559"/>
		<path style="fill:#E57E25;" d="M485.966,156.203h-34.712c-4.799,0-8.678-3.888-8.678-8.678s3.879-8.678,8.678-8.678h34.712
			c4.799,0,8.678,3.888,8.678,8.678S490.765,156.203,485.966,156.203"/>
	</g>
	<path style="fill:#C03A2B;" d="M69.423,381.831c0,4.79-3.888,8.678-8.678,8.678s-8.678-3.888-8.678-8.678s3.888-8.678,8.678-8.678
		S69.423,377.04,69.423,381.831"/>
	<path style="fill:#F0C419;" d="M26.033,225.627c0,4.79-3.888,8.678-8.678,8.678s-8.678-3.888-8.678-8.678s3.888-8.678,8.678-8.678
		S26.033,220.837,26.033,225.627"/>
	<path style="fill:#24AE5F;" d="M451.254,312.407c0,4.79-3.888,8.678-8.678,8.678s-8.678-3.888-8.678-8.678s3.888-8.678,8.678-8.678
		S451.254,307.617,451.254,312.407"/>
	<path style="fill:#4482C3;" d="M512,494.644c0,4.79-3.888,8.678-8.678,8.678s-8.678-3.888-8.678-8.678s3.888-8.678,8.678-8.678
		S512,489.854,512,494.644"/>
	<g>
		<path style="fill:#546A79;" d="M295.05,43.39h-43.39c-4.799,0-8.678-3.879-8.678-8.678s3.879-8.678,8.678-8.678h43.39
			c4.799,0,8.678,3.879,8.678,8.678S299.849,43.39,295.05,43.39"/>
		<path style="fill:#546A79;" d="M225.627,43.39h-8.678c-4.799,0-8.678-3.879-8.678-8.678s3.879-8.678,8.678-8.678h8.678
			c4.799,0,8.678,3.879,8.678,8.678S230.426,43.39,225.627,43.39"/>
	</g>
	<g>
		<path style="fill:#BDC3C7;" d="M112.813,104.136c-4.799,0-8.678-3.879-8.678-8.678V86.78c0-4.799,3.879-8.678,8.678-8.678
			s8.678,3.879,8.678,8.678v8.678C121.491,100.257,117.612,104.136,112.813,104.136"/>
		<path style="fill:#BDC3C7;" d="M112.813,138.847c-4.799,0-8.678-3.879-8.678-8.678v-8.678c0-4.799,3.879-8.678,8.678-8.678
			s8.678,3.879,8.678,8.678v8.678C121.491,134.968,117.612,138.847,112.813,138.847"/>
		<path style="fill:#BDC3C7;" d="M112.813,173.559c-4.799,0-8.678-3.879-8.678-8.678v-8.678c0-4.799,3.879-8.678,8.678-8.678
			s8.678,3.879,8.678,8.678v8.678C121.491,169.68,117.612,173.559,112.813,173.559"/>
		<path style="fill:#BDC3C7;" d="M286.372,477.288c0,14.379-11.655,26.034-26.034,26.034c-14.379,0-26.034-11.654-26.034-26.034
			c0-14.379,11.655-26.034,26.034-26.034C274.718,451.254,286.372,462.909,286.372,477.288"/>
	</g>
	<path style="fill:#4482C3;" d="M338.44,216.949c0-43.867-36.161-79.291-80.306-78.067c-40.743,1.119-74.709,35.068-75.863,75.811
		c-0.503,17.608,4.851,33.913,14.241,47.173c14.805,20.914,29.227,42.097,40.691,65.007l23.135,46.28l24.645-49.3
		c10.856-21.704,24.576-41.732,38.773-61.423C332.991,249.639,338.44,233.941,338.44,216.949"/>
	<path style="fill:#FFFFFF;" d="M286.372,216.949c0,14.379-11.655,26.034-26.034,26.034c-14.379,0-26.034-11.655-26.034-26.034
		c0-14.379,11.655-26.034,26.034-26.034C274.718,190.915,286.372,202.57,286.372,216.949"/>
</g>
<g>
</g>
<g>
</g>
<g>
</g>
<g>
</g>
<g>
</g>
<g>
</g>
<g>
</g>
<g>
</g>
<g>
</g>
<g>
</g>
<g>
</g>
<g>
</g>
<g>
</g>
<g>
</g>
<g>
</g>
</svg>
