<?xml version="1.0" encoding="iso-8859-1"?>
<!-- Generator: Adobe Illustrator 19.0.0, SVG Export Plug-In . SVG Version: 6.00 Build 0)  -->
<svg version="1.1" id="Capa_1" xmlns="http://www.w3.org/2000/svg" xmlns:xlink="http://www.w3.org/1999/xlink" x="0px" y="0px"
	 viewBox="0 0 512 512" style="enable-background:new 0 0 512 512;" xml:space="preserve">
<path style="fill:#FF80B0;" d="M512,256c0,132.096-100.059,240.828-228.519,254.537C274.453,511.509,265.289,512,256,512
	c-9.289,0-18.463-0.491-27.491-1.463C100.049,496.828,0,388.096,0,256c0-31.295,5.622-61.294,15.903-89.015
	c7.774-20.982,18.223-40.657,30.939-58.629C93.194,42.799,169.597,0,256,0s162.806,42.799,209.157,108.356
	c12.706,17.962,23.155,37.637,30.929,58.608C506.378,194.696,512,224.695,512,256z"/>
<path style="fill:#FFC25F;" d="M496.086,166.964c-1.87,82.86-31.054,242.437-212.605,343.573C274.453,511.509,265.289,512,256,512
	c-9.289,0-18.463-0.491-27.491-1.463C46.979,409.412,17.774,249.846,15.903,166.985c-0.752-33.113,2.863-53.979,2.863-53.979
	l14.566-2.299c4.524-0.711,9.028-1.494,13.511-2.351c38.431-7.293,75.107-19.623,108.837-36.394
	C193.348,53.238,227.328,28.975,256,0c54.335,54.941,127.812,92.923,209.157,108.356c4.483,0.857,8.976,1.64,13.5,2.351
	l14.566,2.299C493.223,113.006,496.839,133.862,496.086,166.964z"/>
<path style="fill:#53506D;" d="M255.997,485.026c-52.366-27.593-95.413-62.263-128.116-103.222
	c-28.53-35.733-49.465-76.517-62.223-121.217c-13.829-48.454-15.049-91.419-13.993-116.985
	c76.882-14.31,147.968-47.546,204.332-95.26c56.363,47.714,127.449,80.949,204.331,95.26c1.055,25.566-0.164,68.531-13.993,116.985
	c-12.757,44.7-33.692,85.483-62.222,121.216C351.41,422.763,308.363,457.433,255.997,485.026z"/>
<circle style="fill:#F4B298;" cx="389.486" cy="252.165" r="33.187"/>
<circle style="fill:#D88F7C;" cx="383.687" cy="257.693" r="21.848"/>
<circle style="fill:#EAA48C;" cx="117.091" cy="252.165" r="33.187"/>
<circle style="fill:#D88F7C;" cx="122.901" cy="257.693" r="21.848"/>
<path style="fill:#F9CEBB;" d="M389.603,258.783c0,75.282-61.028,117.382-136.31,117.382s-136.31-42.1-136.31-117.382
	s61.028-136.31,136.31-136.31S389.603,183.501,389.603,258.783z"/>
<path style="fill:#F4B298;" d="M253.297,376.161c-75.284,0-136.314-42.102-136.314-117.379c0-74.865,60.347-135.632,135.048-136.307
	c-53.509,0.947-96.673,61.606-96.673,136.307C155.358,334.058,199.205,376.161,253.297,376.161z"/>
<g>
	<path style="fill:#39B7DD;" d="M328.738,259.124v-24.473c0-6.382-5.174-11.557-11.557-11.557l0,0
		c-6.382,0-11.557,5.174-11.557,11.557v24.473c0,6.382,5.174,11.557,11.557,11.557l0,0
		C323.564,270.681,328.738,265.506,328.738,259.124z"/>
	<path style="fill:#39B7DD;" d="M200.96,259.124v-24.473c0-6.382-5.174-11.557-11.557-11.557l0,0
		c-6.382,0-11.557,5.174-11.557,11.557v24.473c0,6.382,5.174,11.557,11.557,11.557l0,0
		C195.786,270.681,200.96,265.506,200.96,259.124z"/>
</g>
<g>
	<path style="fill:#F4B298;" d="M266.049,248.606h-25.511c-4.545,0-8.23,3.684-8.23,8.23l0,0c0,4.545,3.684,8.23,8.23,8.23h25.511
		c4.545,0,8.23-3.684,8.23-8.23l0,0C274.278,252.291,270.593,248.606,266.049,248.606z"/>
	<path style="fill:#F4B298;" d="M253.293,231.452L253.293,231.452c-5.227,0-9.464,4.237-9.464,9.464v15.92h18.928v-15.919
		C262.756,235.689,258.519,231.452,253.293,231.452z"/>
</g>
<path style="fill:#53506D;" d="M253.293,122.472c-34.15,15.446-34.706,64.643-4.112,79.225c44.028,20.986,60.076-36.21,60.076-36.21
	s-28.804,18.928-37.033,0s25.04-36.139,44.203-27.533l-0.052-0.044C298.937,123.145,275.577,117.43,253.293,122.472L253.293,122.472
	z"/>
<path style="fill:#393751;" d="M265.639,201.698c3.531,1.679,6.88,2.864,10.056,3.605c-7.398,1.942-16.188,1.317-26.515-3.605
	c-30.598-14.583-30.038-63.78,4.115-79.226c8.065-1.826,16.27-2.238,24.286-1.325c-2.617,0.297-5.226,0.741-7.826,1.325
	C235.601,137.918,235.042,187.115,265.639,201.698z"/>
<g>
	<ellipse style="fill:#FCB8D2;" cx="339.237" cy="288.057" rx="18.86" ry="11.472"/>
	<path style="fill:#FCB8D2;" d="M186.208,288.059c0,6.337-8.444,11.472-18.854,11.472c-2.601,0-5.077-0.321-7.325-0.905
		c-6.781-1.728-11.538-5.81-11.538-10.567c0-3.86,3.136-7.283,7.95-9.357c3.078-1.333,6.847-2.115,10.913-2.115
		C177.764,276.587,186.208,281.722,186.208,288.059z"/>
</g>
<path style="fill:#EF9BBE;" d="M160.029,298.626c-6.781-1.728-11.538-5.81-11.538-10.567c0-3.86,3.136-7.283,7.95-9.357
	C157.231,285.697,158.433,292.338,160.029,298.626z"/>
<g>
	<path style="fill:#F4B298;" d="M264.993,330.567c-7.65,2.16-15.752,2.16-23.403,0c-2.028-0.573-4.155,0.509-4.9,2.481
		c-0.009,0.026-0.02,0.051-0.029,0.077c-0.839,2.219,0.381,4.708,2.664,5.354c9.13,2.583,18.801,2.583,27.931,0
		c2.283-0.646,3.503-3.135,2.664-5.354c-0.009-0.026-0.02-0.051-0.029-0.077C269.148,331.076,267.022,329.994,264.993,330.567z"/>
	<path style="fill:#F4B298;" d="M274.501,302.335c-13.866,3.914-28.551,3.914-42.417,0c-3.676-1.038-7.531,0.923-8.881,4.496
		c-0.018,0.047-0.036,0.093-0.052,0.14c-1.52,4.023,0.691,8.535,4.828,9.705c16.548,4.682,34.077,4.682,50.625,0
		c4.138-1.17,6.349-5.682,4.828-9.705c-0.018-0.046-0.036-0.093-0.052-0.14C282.032,303.258,278.177,301.297,274.501,302.335z"/>
</g>
<g>
</g>
<g>
</g>
<g>
</g>
<g>
</g>
<g>
</g>
<g>
</g>
<g>
</g>
<g>
</g>
<g>
</g>
<g>
</g>
<g>
</g>
<g>
</g>
<g>
</g>
<g>
</g>
<g>
</g>
</svg>
