<?xml version="1.0" encoding="iso-8859-1"?>
<!-- Generator: Adobe Illustrator 19.0.0, SVG Export Plug-In . SVG Version: 6.00 Build 0)  -->
<svg version="1.1" id="Capa_1" xmlns="http://www.w3.org/2000/svg" xmlns:xlink="http://www.w3.org/1999/xlink" x="0px" y="0px"
	 viewBox="0 0 512 512" style="enable-background:new 0 0 512 512;" xml:space="preserve">
<path style="fill:#BBF7FA;" d="M191.781,512H4c-2.209,0-4-1.791-4-4v-73.155c0-44.29,35.904-80.194,80.194-80.194h31.393
	c44.29,0,80.194,35.904,80.194,80.194V512z"/>
<path style="fill:#82E8ED;" d="M111.587,354.65H80.615c44.29,0,80.194,35.904,80.194,80.194V512h30.972v-77.155
	C191.781,390.555,155.877,354.65,111.587,354.65z"/>
<path style="fill:#DC527C;" d="M248.602,22.349c0.453,0.624,1.375,0.624,1.828,0C254.053,17.355,268.439,0,293.365,0
	c25.959,0,43.85,24.309,43.85,52.62c0,32.517-24.014,70.945-86.246,104.461c-0.903,0.486-2.004,0.486-2.907,0
	c-62.232-33.516-86.246-71.944-86.246-104.461c0-28.311,17.891-52.62,43.85-52.62C230.593,0,244.978,17.355,248.602,22.349z"/>
<path style="fill:#BF476C;" d="M293.365,0c-6.143,0-11.643,1.057-16.503,2.721c17.939,7.087,29.447,27.2,29.447,49.899
	c0,29.951-20.4,64.914-72.247,96.437c4.442,2.701,9.088,5.38,13.999,8.024c0.903,0.486,2.004,0.486,2.907,0
	c62.232-33.516,86.246-71.944,86.246-104.462C337.215,24.309,319.325,0,293.365,0z"/>
<path style="fill:#DC527C;" d="M508,512H320.219v-77.155c0-44.29,35.904-80.194,80.194-80.194h31.393
	c44.29,0,80.194,35.904,80.194,80.194V508C512,510.209,510.209,512,508,512z"/>
<path style="fill:#BF476C;" d="M431.806,354.65H400.9c44.29,0,80.194,35.904,80.194,80.194V512H508c2.209,0,4-1.791,4-4v-73.155
	C512,390.555,476.096,354.65,431.806,354.65z"/>
<path style="fill:#BD725F;" d="M96.061,382.088L96.061,382.088c-12.14,0-21.98-9.841-21.98-21.98v-39.891h43.961v39.891
	C118.042,372.247,108.201,382.088,96.061,382.088z"/>
<polygon style="fill:#BF476C;" points="108.725,391.098 104.903,408.982 87.05,408.982 83.228,391.098 95.889,382.207 
	95.982,382.146 96.064,382.207 "/>
<g>
	<polygon style="fill:#E9937C;" points="96.064,382.084 96.064,382.207 95.982,382.146 	"/>
	<polygon style="fill:#E9937C;" points="95.982,382.146 95.889,382.207 95.889,382.084 	"/>
</g>
<polygon style="fill:#DC527C;" points="111.002,472.08 96.064,492.427 81.127,472.08 87.05,408.982 105.078,408.982 "/>
<g>
	<circle style="fill:#77433F;" cx="416.64" cy="429.07" r="7.5"/>
	<circle style="fill:#77433F;" cx="416.64" cy="463.85" r="7.5"/>
</g>
<g>
	<path style="fill:#BD725F;" d="M153.931,276.741l12.7-0.095c8.016-0.06,14.466-6.606,14.406-14.622l-0.095-12.7
		c-0.06-8.016-6.606-14.466-14.622-14.406l-12.7,0.095L153.931,276.741z"/>
	<path style="fill:#BD725F;" d="M36.018,276.741l-12.7-0.095c-8.016-0.06-14.466-6.606-14.406-14.622l0.095-12.7
		c0.06-8.016,6.606-14.466,14.622-14.406l12.7,0.095L36.018,276.741z"/>
</g>
<path style="fill:#E9937C;" d="M33.015,270.971l-0.342-45.865c-0.254-34.055,27.148-61.868,61.203-62.122l0,0
	c34.055-0.254,61.868,27.148,62.122,61.203l0.342,45.865c0.254,34.055-27.148,61.868-61.203,62.122l0,0
	C61.082,332.428,33.269,305.027,33.015,270.971z"/>
<path style="fill:#CF7D68;" d="M155.999,224.187c-0.254-34.055-28.067-61.457-62.122-61.203l0,0
	c-5.166,0.038-10.175,0.72-14.961,1.952c26.417,6.805,46.028,30.682,46.241,59.251l0.342,45.865
	c0.215,28.89-19.475,53.278-46.242,60.17c5.073,1.307,10.394,1.993,15.881,1.952l0,0c34.055-0.254,61.457-28.067,61.203-62.122
	L155.999,224.187z"/>
<path style="fill:#77433F;" d="M167.424,228.355c-1.985,3.872-3.037,10.368-3.565,17.254c-0.21,2.796-2.55,4.954-5.359,4.975
	l-1.412,0.011c-7.922,0.059-14.552-5.934-15.361-13.814c-1.539-15.002-6.19-41.815-19.134-43.405
	c-19.341-2.368-32.481-11.57-50.645-12.505c-2.255-0.119-9.751,4.346-13.648,16.347c-2.335,7.192-6.035,13.833-10.371,20.028
	c-2.917,4.168-3.889,11.561-4.137,19.47c-0.258,8.207-6.899,14.775-15.118,14.836c-2.794,0.021-5.144-2.087-5.432-4.872
	c-1.338-13.019-3.187-26.732-5.358-31.889c-4.336-10.321,0.211-57.453,35.847-63.642c6.937-19.643,27.741-26.39,36.83-26.458
	c10.003-0.075,31.597-0.592,45.073,17.509c3.446,4.634,7.387,8.893,11.977,12.412c7.781,5.97,19.026,16.908,20.641,31.195
	C170.765,207.959,173.262,216.978,167.424,228.355z"/>
<path style="fill:#633532;" d="M168.251,185.807c-1.615-14.288-12.86-25.226-20.641-31.195c-4.59-3.518-8.531-7.777-11.977-12.412
	c-13.476-18.101-35.07-17.584-45.073-17.509c-2.522,0.019-5.948,0.554-9.728,1.735c8.585,2.039,17.722,6.414,24.691,15.774
	c3.446,4.634,7.387,8.893,11.977,12.412c7.781,5.97,19.026,16.908,20.641,31.195c1.5,13.216,2.991,21.757,2.711,28.914
	c-0.27,6.896-0.034,13.797,0.725,20.657c0.053,0.478,0.103,0.947,0.15,1.404c0.809,7.88,7.439,13.873,15.361,13.814l1.412-0.01
	c2.809-0.021,5.149-2.179,5.359-4.975c0.528-6.886,1.58-13.382,3.565-17.255C173.262,216.978,170.765,207.959,168.251,185.807z"/>
<g>
	<path style="fill:#DC527C;" d="M73.157,348.47l22.904,33.619L76.515,395.81c-1.908,1.34-4.553,0.77-5.741-1.237l-19.456-32.884
		c-1.125-1.901-0.496-4.354,1.406-5.479l15.091-8.929C69.63,346.205,71.969,346.726,73.157,348.47z"/>
	<path style="fill:#DC527C;" d="M118.966,348.47l-22.904,33.619l19.547,13.721c1.908,1.34,4.553,0.77,5.741-1.237l19.456-32.884
		c1.125-1.901,0.496-4.354-1.406-5.479l-15.091-8.929C122.492,346.205,120.154,346.726,118.966,348.47z"/>
</g>
<path style="fill:#34B2CC;" d="M328.948,512H183.052c-2.209,0-4-1.791-4-4v-47.156c0-33.424,27.096-60.52,60.52-60.52h32.855
	c33.424,0,60.52,27.096,60.52,60.52V508C332.948,510.209,331.157,512,328.948,512z"/>
<path style="fill:#2E9EB5;" d="M272.427,400.323h-30.905c33.424,0,60.52,27.096,60.52,60.52V512h26.905c2.209,0,4-1.791,4-4v-47.156
	C332.948,427.419,305.852,400.323,272.427,400.323z"/>
<g>
	<circle style="fill:#77433F;" cx="256.74" cy="452.87" r="7.5"/>
	<circle style="fill:#77433F;" cx="256.74" cy="484.7" r="7.5"/>
</g>
<path style="fill:#BD725F;" d="M256,418.875L256,418.875c-9.741,0-17.638-7.897-17.638-17.638v-32.01h35.277v32.01
	C273.638,410.978,265.741,418.875,256,418.875z"/>
<path style="fill:#E9937C;" d="M209.849,339.8l-0.254-34.163c-0.189-25.366,20.221-46.083,45.587-46.272l0,0
	c25.366-0.189,46.083,20.221,46.272,45.587l0.254,34.163c0.189,25.366-20.221,46.083-45.587,46.272l0,0
	C230.755,385.577,210.038,365.166,209.849,339.8z"/>
<path style="fill:#CF7D68;" d="M301.454,304.953c-0.189-25.366-20.905-45.776-46.272-45.587l0,0
	c-5.279,0.039-10.338,0.979-15.047,2.653c17.659,6.295,30.359,23.099,30.507,42.934l0.254,34.163
	c0.15,20.087-12.624,37.247-30.54,43.618c4.924,1.755,10.234,2.695,15.765,2.654l0,0c25.366-0.189,45.776-20.906,45.587-46.272
	L301.454,304.953z"/>
<path style="fill:#77433F;" d="M321.46,307.47c1.259,3.727,6.905,22.445-3.967,29.776c-0.41,0.276-0.731,0.671-0.865,1.147
	c-0.741,2.638-4.174,11.69-16.248,10.907c-1.047-0.068-1.864-0.952-1.864-2.001v-17.621c0-0.89-0.585-1.666-1.438-1.919
	c-3.631-1.077-13.112-5.066-16.349-17.905c-0.318-1.259-1.77-1.863-2.9-1.223c-3.735,2.116-11.672,5.78-21.829,5.78
	c-10.165,0-18.103-3.665-21.839-5.781c-1.13-0.64-2.582-0.036-2.899,1.223c-3.237,12.839-12.718,16.828-16.349,17.905
	c-0.853,0.253-1.438,1.029-1.438,1.919v17.621c0,1.05-0.817,1.933-1.864,2.001c-12.074,0.783-15.507-8.269-16.248-10.907
	c-0.134-0.476-0.455-0.87-0.865-1.147c-10.871-7.331-5.218-26.048-3.957-29.775c0.146-0.431,0.134-0.898-0.022-1.326
	c-12.179-33.407,18.926-47.838,23.854-49.887c0.428-0.178,0.763-0.504,0.986-0.911c8.34-15.236,37.456-12.099,40.401-11.74
	c0.163,0.02,0.319,0.02,0.482,0c2.945-0.359,32.051-3.496,40.391,11.74c0.223,0.407,0.558,0.733,0.986,0.911
	c4.93,2.049,36.044,16.48,23.864,49.887C321.326,306.572,321.314,307.039,321.46,307.47z"/>
<path style="fill:#633532;" d="M296.632,255.347C287.844,239.294,256,243.638,256,243.638s-7.057-0.96-15.442-0.305
	c8.353,0.652,18.025,2.908,23.359,9.321c1.825,2.194,4.02,4.042,6.546,5.371c8.413,4.426,25.756,16.399,22.556,38.714
	c-1.131,7.885-0.427,15.924,2.425,23.362l0.075,0.195c1.981,5.168,2.997,10.655,2.997,16.189v9.407c0,1.941,1.603,3.475,3.543,3.454
	c12.624-0.138,14.743-11.662,14.743-11.662c11.797-6.993,5.943-26.409,4.658-30.213c-0.146-0.431-0.134-0.898,0.022-1.325
	c12.179-33.407-18.934-47.838-23.864-49.887C297.19,256.08,296.854,255.754,296.632,255.347z"/>
<path style="fill:#BD725F;" d="M416.11,382.088L416.11,382.088c-12.14,0-21.98-9.841-21.98-21.98v-39.891h43.961v39.891
	C438.09,372.247,428.249,382.088,416.11,382.088z"/>
<path style="fill:#E9937C;" d="M354.179,275.447v-46.66c0-34.495,27.964-62.458,62.458-62.458l0,0
	c34.495,0,62.458,27.964,62.458,62.458v46.66c0,34.495-27.964,62.458-62.458,62.458l0,0
	C382.143,337.906,354.179,309.942,354.179,275.447z"/>
<path style="fill:#CF7D68;" d="M416.638,166.329L416.638,166.329c-5.888,0-11.579,0.833-16.98,2.356
	c26.239,7.399,45.478,31.496,45.478,60.103v46.66c0,28.606-19.239,52.703-45.478,60.103c5.401,1.523,11.092,2.356,16.98,2.356l0,0
	c34.495,0,62.458-27.964,62.458-62.458v-46.66C479.096,194.292,451.132,166.329,416.638,166.329z"/>
<path style="fill:#77433F;" d="M416.007,196.461c0.383-0.1,0.778,0.033,1.024,0.343c2.906,3.665,21.43,26.717,38.26,40.317
	c11.954,9.66,14.168,57.031,14.263,88.794c0.015,5.15,7.307,6.181,8.747,1.237c16.787-57.633,41.661-183.602-61.663-183.602
	c-107.661,0-78.34,129.312-60.377,185.845c1.546,4.866,8.731,3.74,8.715-1.366c-0.088-27.978,0.891-69.936,6.97-88.513
	C382.803,206.335,411.398,197.659,416.007,196.461z"/>
<path style="fill:#633532;" d="M416.638,143.551c-5.561,0-10.736,0.363-15.587,1.026c47.812,6.698,61.681,45.857,61.83,88.647
	c0.036,10.387,0.987,20.745,2.698,30.991c3.118,18.671,3.919,42.912,3.975,61.701c0.015,5.15,7.307,6.181,8.747,1.237
	C495.088,269.519,519.962,143.551,416.638,143.551z"/>
<g>
	<path style="fill:#FAC55A;" d="M393.205,348.47l22.904,33.619l-19.547,13.721c-1.908,1.34-4.553,0.77-5.741-1.237l-19.456-32.884
		c-1.125-1.901-0.496-4.354,1.406-5.479l15.091-8.929C389.678,346.205,392.017,346.726,393.205,348.47z"/>
	<path style="fill:#FAC55A;" d="M439.014,348.47l-22.904,33.619l19.547,13.721c1.908,1.34,4.553,0.77,5.741-1.237l19.456-32.884
		c1.125-1.901,0.496-4.354-1.406-5.479l-15.091-8.929C442.54,346.205,440.202,346.726,439.014,348.47z"/>
</g>
<g>
</g>
<g>
</g>
<g>
</g>
<g>
</g>
<g>
</g>
<g>
</g>
<g>
</g>
<g>
</g>
<g>
</g>
<g>
</g>
<g>
</g>
<g>
</g>
<g>
</g>
<g>
</g>
<g>
</g>
</svg>
