<svg height="511pt" viewBox="-21 1 511 511.99899" width="511pt" xmlns="http://www.w3.org/2000/svg"><path d="m306.34375 386.28125c88.941406 7.886719 153.027344 30.109375 153.027344 56.289062 0 32.777344-100.464844 59.347657-224.394532 59.347657-123.933593 0-224.398437-26.570313-224.398437-59.347657 0-26.207031 64.222656-48.449218 153.316406-56.3125" fill="#f5737f"/><path d="m337.945312 46.863281c-59.789062-49.042969-147.605468-49.042969-207.394531 0-56.28125 46.171875-80.457031 132.25-59.472656 201.492188 24.089844 79.488281 96.957031 143.269531 158.761719 194.175781 1.464844 1.207031 2.933594 2.410156 4.40625 3.613281 1.476562-1.203125 2.945312-2.40625 4.414062-3.613281 60.898438-50.195312 129.773438-107.359375 156.050782-184.613281 24.148437-70.992188 1.847656-162.972657-56.765626-211.054688zm0 0" fill="#ffcb7c"/><path d="m348.484375 179.277344c0 62.695312-50.824219 113.519531-113.523437 113.519531-62.695313 0-113.519532-50.824219-113.519532-113.519531 0-62.695313 50.824219-113.519532 113.519532-113.519532 62.699218 0 113.523437 50.824219 113.523437 113.519532zm0 0" fill="#fafafa"/><path d="m234.960938 109.039062 25.511718 37.222657 43.28125 12.757812-27.515625 35.761719 1.242188 45.109375-42.519531-15.121094-42.515626 15.121094 1.242188-45.109375-27.519531-35.761719 43.285156-12.757812zm0 0" fill="#b0e7f8"/><path d="m419.640625 398.085938c-24.324219-8.796876-56.242187-15.589844-93.125-19.871094 3.5625-3.609375 7.082031-7.265625 10.535156-10.976563 33.015625-35.488281 54.996094-70.1875 67.203125-106.074219 26.222656-77.082031.464844-172.5625-59.914062-222.09375-30.714844-25.195312-69.8125-39.070312-110.089844-39.070312-.003906 0 0 0 0 0-40.277344 0-79.378906 13.875-110.089844 39.070312-28.59375 23.457032-50.613281 57.929688-62 97.070313-11.25 38.679687-11.507812 79.566406-.730468 115.136719 14.421874 47.585937 45.390624 89.496094 81.820312 126.957031-36.753906 4.277344-68.570312 11.050781-92.84375 19.816406-33.117188 11.957031-49.90625 26.9375-49.90625 44.515625 0 21.464844 24.636719 38.863282 73.226562 51.714844 43.199219 11.425781 100.464844 17.71875 161.25 17.71875 60.78125 0 118.050782-6.292969 161.25-17.71875 48.589844-12.851562 73.226563-30.25 73.226563-51.714844 0-17.5625-16.761719-32.527344-49.8125-44.480468zm-338.121094-256.3125c10.261719-35.273438 29.945313-66.214844 55.425781-87.117188 27.117188-22.246094 61.675782-34.496094 97.304688-34.496094 35.625 0 70.183594 12.253906 97.300781 34.5 26.367188 21.628906 46.277344 54.1875 56.058594 91.6875 9.632813 36.910156 8.765625 75.382813-2.441406 108.328125-25.257813 74.25-91.710938 129.621094-150.917969 178.425781-62.742188-51.78125-130.949219-113.179687-153.523438-187.671874-9.660156-31.875-9.378906-68.6875.792969-103.65625zm309.550781 333.015624c-41.566406 10.996094-97.003906 17.050782-156.09375 17.050782-59.09375 0-114.53125-6.054688-156.097656-17.050782-45.957031-12.15625-58.21875-25.972656-58.21875-32.21875 0-13.394531 44.894532-37.109374 141.175782-46.003906 20.0625 19.046875 41.140624 36.898438 61.59375 53.746094 8.300781 6.839844 13.199218 6.949219 21.640624-.003906 19.917969-16.417969 41.628907-34.320313 62.542969-53.785156 96.628907 8.859374 141.675781 32.640624 141.675781 46.046874 0 6.246094-12.261718 20.0625-58.21875 32.21875zm0 0"/><path d="m288.941406 290.496094c11.710938-5.515625 3.136719-23.765625-8.589844-18.242188-14.324218 6.746094-30.445312 10.464844-45.390624 10.464844-57.035157 0-103.4375-46.40625-103.4375-103.441406 0-57.039063 46.402343-103.441406 103.4375-103.441406 57.039062 0 103.441406 46.402343 103.441406 103.441406 0 14.058594-2.769532 27.6875-8.226563 40.503906-5.074219 11.90625 13.46875 19.828125 18.546875 7.902344 6.53125-15.328125 9.839844-31.613282 9.839844-48.40625 0-68.152344-55.445312-123.601563-123.601562-123.601563-68.152344 0-123.601563 55.449219-123.601563 123.601563s55.449219 123.601562 123.601563 123.601562c17.851562 0 37.023437-4.398437 53.980468-12.382812zm0 0"/><path d="m317.714844 246.765625c-5.476563 0-10.078125 4.585937-10.078125 10.070313 0 5.484374 4.597656 10.078124 10.078125 10.078124 5.332031 0 9.828125-4.320312 10.0625-9.636718.25-5.648438-4.398438-10.511719-10.0625-10.511719zm0 0"/><path d="m313.34375 155.90625c-1.03125-3.164062-3.550781-5.617188-6.738281-6.554688l-39.84375-11.746093-23.484375-34.265625c-3.933594-5.738282-12.695313-5.738282-16.628906 0l-23.484376 34.265625-39.84375 11.746093c-6.667968 1.964844-9.386718 10.292969-5.136718 15.816407l25.328125 32.921875-1.140625 41.523437c-.191406 6.949219 6.886718 12.109375 13.453125 9.773438l39.136719-13.917969 39.140624 13.917969c6.5625 2.335937 13.644532-2.824219 13.453126-9.773438l-1.140626-41.523437 25.332032-32.921875c2.023437-2.636719 2.625-6.101563 1.597656-9.261719zm-45.09375 32.730469c-6.058594 7.875-1.507812 27.53125-1.253906 36.828125l-28.65625-10.191406c-9.363282-3.332032-26.648438 7.074218-35.410156 10.191406.253906-9.222656 4.789062-28.976563-1.253907-36.828125l-18.546875-24.109375 29.175782-8.597656c9.53125-2.8125 17.402343-21.390626 22.65625-29.058594l17.195312 25.089844c5.617188 8.195312 25.71875 9.9375 34.640625 12.570312zm0 0"/></svg>