<?xml version="1.0" encoding="iso-8859-1"?>
<!-- Generator: Adobe Illustrator 19.0.0, SVG Export Plug-In . SVG Version: 6.00 Build 0)  -->
<svg version="1.1" id="Capa_1" xmlns="http://www.w3.org/2000/svg" xmlns:xlink="http://www.w3.org/1999/xlink" x="0px" y="0px"
	 viewBox="0 0 512 512" style="enable-background:new 0 0 512 512;" xml:space="preserve">
<path style="fill:#455A64;" d="M256,0c-76.544,0.094-138.573,62.122-138.667,138.667V224c0,5.891,4.776,10.667,10.667,10.667h42.667
	c5.891,0,10.667-4.776,10.667-10.667v-85.333C181.333,97.429,214.763,64,256,64s74.667,33.429,74.667,74.667V224
	c0,5.891,4.776,10.667,10.667,10.667H384c5.891,0,10.667-4.776,10.667-10.667v-85.333C394.573,62.122,332.544,0.094,256,0z"/>
<path style="fill:#FFC107;" d="M128,213.333h256c29.455,0,53.333,23.878,53.333,53.333v192C437.333,488.122,413.455,512,384,512H128
	c-29.455,0-53.333-23.878-53.333-53.333v-192C74.667,237.211,98.545,213.333,128,213.333z"/>
<path style="fill:#455A64;" d="M309.333,330.667c0.124-29.455-23.653-53.434-53.108-53.558
	c-29.455-0.124-53.434,23.653-53.558,53.108c-0.086,20.36,11.427,38.992,29.674,48.023l-8.235,57.6
	c-0.825,5.833,3.235,11.23,9.068,12.055c0.494,0.07,0.993,0.105,1.492,0.105h42.667c5.891,0.06,10.715-4.667,10.774-10.558
	c0.005-0.543-0.03-1.086-0.108-1.623l-8.235-57.6C297.788,369.199,309.216,350.82,309.333,330.667z"/>
<g>
</g>
<g>
</g>
<g>
</g>
<g>
</g>
<g>
</g>
<g>
</g>
<g>
</g>
<g>
</g>
<g>
</g>
<g>
</g>
<g>
</g>
<g>
</g>
<g>
</g>
<g>
</g>
<g>
</g>
</svg>
