<svg height="512pt" viewBox="0 -38 512 512" width="512pt" xmlns="http://www.w3.org/2000/svg"><path d="m326.105469 227.507812c0 11.59375-3.65625 22.335938-9.867188 31.136719h-.007812c-9.777344 13.851563-25.910157 22.894531-44.160157 22.894531-17.515624 0-33.085937-8.335937-42.960937-21.261718h-21.679687l-102.863282.007812c-9.867187 12.917969-25.421875 21.257813-42.9375 21.257813-29.847656 0-54.035156-24.195313-54.035156-54.035157 0-27.757812 20.925781-50.609374 47.859375-53.675781v-54.839843c0-30.757813 12.472656-58.609376 32.628906-78.765626s48.003907-32.628906 78.765625-32.628906c61.519532 0 111.394532 49.875 111.394532 111.394532v54.839843c26.9375 3.0625 47.863281 25.914063 47.863281 53.675781zm0 0" fill="#aa6952"/><path d="m316.230469 258.644531c-9.777344 13.851563-25.910157 22.894531-44.160157 22.894531-17.515624 0-33.085937-8.335937-42.960937-21.261718h-21.679687v-19.761719l35.324218-62.34375c0 30.742187 18.941406 80.460937 73.476563 80.472656zm0 0" fill="#89412b"/><path d="m165.976562 7.605469c-18.324218.382812-34.878906 12.777343-46.917968 32.617187-12.226563 20.15625-19.796875 48.007813-19.796875 78.769532v54.839843c-16.339844 3.0625-29.03125 25.914063-29.03125 53.671875 0 20.511719 6.933593 38.355469 17.144531 47.507813-7.652344 4.164062-16.421875 6.527343-25.746094 6.527343-29.847656 0-54.035156-24.195312-54.035156-54.035156 0-27.757812 20.925781-50.609375 47.863281-53.671875v-54.839843c0-30.761719 12.46875-58.613282 32.625-78.769532 19.964844-19.964844 47.476563-32.386718 77.894531-32.617187zm0 0" fill="#89412b"/><path d="m258.121094 345.160156v82.6875h-182.554688v-82.6875c0-50.410156 40.863282-91.28125 91.273438-91.28125 7.132812 0 14.074218.820313 20.738281 2.363282 16.882813 3.921874 31.964844 12.53125 43.808594 24.371093 16.515625 16.519531 26.734375 39.339844 26.734375 64.546875zm0 0" fill="#31ad7a"/><path d="m258.121094 345.160156v82.6875h-141.078125v-82.6875c0-43.28125 30.121093-79.527344 70.535156-88.917968 16.882813 3.925781 31.964844 12.53125 43.808594 24.371093 16.515625 16.519531 26.734375 39.339844 26.734375 64.546875zm0 0" fill="#4ccc9b"/><path d="m206.777344 275.636719c4.070312 32.730469-11.125 56.667969-39.933594 74.949219-28.796875-18.28125-44-42.210938-39.945312-74.9375" fill="#e8b182"/><path d="m258.125 176.464844v17.078125c0 44.480469-31.828125 81.53125-73.945312 89.625-4.820313.929687-9.773438 1.480469-14.835938 1.621093h-.121094c-.867187.023438-1.742187.027344-2.625.027344-50.3125-.097656-91.03125-40.964844-91.03125-91.273437v-17.078125c0-50.078125 91.285156-57.035156 91.285156-91.054688 0 34.019532 91.273438 40.976563 91.273438 91.054688zm0 0" fill="#ffd0a6"/><path d="m182.558594 283.460938c-4.304688.75-8.722656 1.203124-13.214844 1.328124h-.121094c-.875.023438-1.742187.027344-2.625.027344-50.320312-.097656-91.03125-40.964844-91.03125-91.273437v-17.078125c0-19.796875 14.265625-32.855469 31.519532-43.507813v60.585938c0 45.003906 32.582031 82.453125 75.472656 89.917969zm0 0" fill="#e8b182"/><path d="m498.515625 330.898438v96.945312h-240.394531v-96.945312c0-34.984376 25.164062-64.078126 58.375-70.191407h123.625c33.222656 6.097657 58.394531 35.199219 58.394531 70.191407zm0 0" fill="#ccc"/><path d="m498.515625 330.898438v96.945312h-207.375v-96.945312c0-34.984376 25.160156-64.078126 58.371094-70.191407h90.609375c33.222656 6.097657 58.394531 35.199219 58.394531 70.191407zm0 0" fill="#e6e6e6"/><path d="m269.792969 158.40625c-21.46875-124.042969 57.335937-150.808594 108.53125-150.808594 51.191406 0 130 26.769532 108.527343 150.808594" fill="#2e5968"/><path d="m319.496094 158.40625h-49.703125c-21.394531-123.582031 56.753906-150.609375 107.953125-150.800781-27.757813.367187-69.804688 27.621093-58.25 150.800781zm0 0" fill="#1a414c"/><path d="m504.417969 185.644531c0 15.707031-12.097657 28.578125-27.476563 29.808594-.804687.066406-1.621094.101563-2.4375.101563-2.09375 0-4.132812-.210938-6.105468-.625h-180.15625c-1.972657.414062-4.011719.625-6.109376.625h-.019531c-16.515625-.011719-29.890625-13.394532-29.890625-29.910157 0-15.570312 11.898438-28.359375 27.101563-29.769531.925781-.09375 1.863281-.132812 2.808593-.132812 1.261719 0 2.488282.074218 3.707032.222656h184.960937c1.214844-.148438 2.449219-.222656 3.707031-.222656 1.773438 0 3.515626.15625 5.199219.453124 14.042969 2.457032 24.710938 14.707032 24.710938 29.449219zm0 0" fill="#ffd0a6"/><path d="m478.507812 156.195312v37.886719c0 7.359375-.957031 14.519531-2.765624 21.371094-.804688.070313-1.621094.105469-2.4375.105469-2.09375 0-4.132813-.210938-6.105469-.625h-180.15625c-1.972657.414062-4.011719.625-6.105469.625h-.023438c-1.820312-6.890625-2.785156-14.078125-2.785156-21.472656v-38.207032c.921875-.097656 1.863282-.136718 2.808594-.136718 1.257812 0 2.488281.074218 3.703125.222656h184.960937c1.214844-.148438 2.445313-.222656 3.707032-.222656 1.773437 0 3.511718.15625 5.199218.453124zm0 0" fill="#e8b182"/><path d="m420.46875 275.785156-5.253906 44.277344-36.894532-35.277344-36.894531 35.277344-5.253906-44.277344" fill="#fff"/><path d="m469.597656 155.964844v37.578125c0 44.480469-31.828125 81.53125-73.945312 89.625-4.820313.929687-9.773438 1.480469-14.832032 1.621093h-.125c-.875.023438-1.742187.027344-2.625.027344-50.3125-.097656-91.03125-40.964844-91.03125-91.273437v-37.578125l24.496094-52.546875c21.414063 8.660156 44.105469 13 66.789063 13 22.683593 0 45.371093-4.339844 66.789062-13zm0 0" fill="#ffd0a6"/><path d="m394.03125 283.460938c-4.304688.75-8.722656 1.203124-13.210938 1.328124h-.125c-.875.023438-1.742187.027344-2.625.027344-50.316406-.097656-91.03125-40.964844-91.03125-91.273437v-37.578125l24.496094-52.546875c3.015625 1.222656 6.066406 2.359375 9.128906 3.410156-1.382812 6.304687-2.105468 12.847656-2.105468 19.558594v67.15625c0 45.003906 32.582031 82.453125 75.472656 89.917969zm0 0" fill="#e8b182"/><path d="m401.167969 197.484375h-22.847657c0 18.925781 15.34375 34.269531 34.273438 34.269531h22.847656c0-18.925781-15.34375-34.269531-34.273437-34.269531zm0 0" fill="#2e5968"/><path d="m355.472656 197.484375h22.847656c0 18.925781-15.34375 34.269531-34.273437 34.269531h-22.847656c0-18.925781 15.34375-34.269531 34.273437-34.269531zm0 0" fill="#2e5968"/><path d="m189.847656 214.558594c-6.144531 6.144531-14.3125 9.527344-23.003906 9.527344-8.6875 0-16.855469-3.382813-23-9.527344-2.96875-2.964844-7.78125-2.96875-10.746094 0-2.96875 2.96875-2.96875 7.777344 0 10.746094 9.011719 9.015624 21 13.980468 33.746094 13.980468 12.75 0 24.734375-4.964844 33.75-13.980468 2.96875-2.96875 2.96875-7.777344 0-10.746094s-7.78125-2.96875-10.746094 0zm0 0"/><path d="m134.683594 180.414062v-22.4375c0-4.195312-3.402344-7.597656-7.601563-7.597656-4.195312 0-7.597656 3.402344-7.597656 7.597656v22.4375c0 4.195313 3.402344 7.597657 7.597656 7.597657 4.199219 0 7.601563-3.402344 7.601563-7.597657zm0 0"/><path d="m206.613281 150.378906c-4.195312 0-7.597656 3.402344-7.597656 7.597656v22.4375c0 4.195313 3.402344 7.597657 7.597656 7.597657 4.199219 0 7.601563-3.402344 7.601563-7.597657v-22.4375c0-4.195312-3.402344-7.597656-7.601563-7.597656zm0 0"/><path d="m75.570312 395.84375c-4.199218 0-7.597656 3.402344-7.597656 7.597656v24.40625c0 4.199219 3.398438 7.601563 7.597656 7.601563 4.199219 0 7.597657-3.402344 7.597657-7.601563v-24.40625c0-4.195312-3.402344-7.597656-7.597657-7.597656zm0 0"/><path d="m117.042969 352.992188c-4.199219 0-7.597657 3.402343-7.597657 7.597656v67.257812c0 4.195313 3.398438 7.597656 7.597657 7.597656 4.195312 0 7.597656-3.402343 7.597656-7.597656v-67.257812c0-4.195313-3.402344-7.597656-7.597656-7.597656zm0 0"/><path d="m216.648438 352.992188c-4.195313 0-7.597657 3.402343-7.597657 7.597656v67.257812c0 4.195313 3.402344 7.597656 7.597657 7.597656 4.199218 0 7.597656-3.402343 7.597656-7.597656v-67.257812c0-4.195313-3.402344-7.597656-7.597656-7.597656zm0 0"/><path d="m338.554688 188.011719c4.195312 0 7.597656-3.402344 7.597656-7.597657v-22.4375c0-4.195312-3.402344-7.597656-7.597656-7.597656-4.199219 0-7.597657 3.402344-7.597657 7.597656v22.4375c0 4.195313 3.402344 7.597657 7.597657 7.597657zm0 0"/><path d="m418.085938 188.011719c4.199218 0 7.597656-3.402344 7.597656-7.597657v-22.4375c0-4.195312-3.398438-7.597656-7.597656-7.597656-4.199219 0-7.597657 3.402344-7.597657 7.597656v22.4375c0 4.195313 3.402344 7.597657 7.597657 7.597657zm0 0"/><path d="m344.046875 239.355469c14.160156 0 26.691406-7.074219 34.273437-17.863281 7.582032 10.789062 20.113282 17.863281 34.273438 17.863281h22.847656c4.195313 0 7.597656-3.402344 7.597656-7.601563 0-23.085937-18.78125-41.871094-41.871093-41.871094h-45.695313c-23.089844 0-41.871094 18.785157-41.871094 41.871094 0 4.199219 3.398438 7.601563 7.597657 7.601563zm57.121094-34.273438c12.070312 0 22.292969 8.054688 25.570312 19.074219h-14.144531c-12.070312 0-22.292969-8.058594-25.574219-19.074219zm-45.695313 0h14.148438c-3.28125 11.015625-13.503906 19.074219-25.574219 19.074219h-14.148437c3.28125-11.015625 13.503906-19.074219 25.574218-19.074219zm0 0"/><path d="m454.335938 256.738281c8.171874-9.835937 14.449218-21.25 18.339843-33.648437.601563.03125 1.203125.066406 1.816407.066406 20.679687 0 37.507812-16.824219 37.507812-37.507812 0-13.03125-6.683594-24.523438-16.800781-31.25 6.003906-38.988282 2.550781-71.523438-10.296875-96.761719-1.90625-3.742188-6.480469-5.230469-10.21875-3.328125-3.738282 1.90625-5.226563 6.480468-3.324219 10.21875 11.007813 21.632812 14.121094 49.910156 9.316406 84.136718-2.011719-.335937-4.078125-.519531-6.183593-.519531-.050782 0-.101563.003907-.152344.003907l-22.34375-47.9375c-1.707032-3.667969-5.984375-5.351563-9.734375-3.835938-41.230469 16.683594-86.644531 16.683594-127.878907 0-3.75-1.515625-8.027343.171875-9.738281 3.835938l-22.34375 47.9375c-.046875 0-.097656-.003907-.144531-.003907-2.113281 0-4.183594.183594-6.203125.523438-6.113281-43.492188.542969-77.121094 19.835937-100.039063 8.460938-10.050781 33.441407-33.429687 82.539063-33.429687 17.992187 0 51.855469 3.503906 76.464844 26.976562 3.035156 2.894531 7.847656 2.785157 10.742187-.253906 2.894532-3.035156 2.78125-7.847656-.253906-10.742187-28.441406-27.128907-66.6875-31.179688-86.953125-31.179688-18.484375 0-64.65625 3.785156-94.164063 38.839844-5.460937 6.484375-10.039062 13.664062-13.753906 21.5-8.613281-15.21875-20.496094-28.378906-35.019531-38.628906-20.125-14.203126-43.824219-21.70703175-68.535156-21.70703175-31.789063 0-61.671875 12.37499975-84.148438 34.84765575-22.472656 22.472657-34.847656 52.351563-34.847656 84.136719v48.433594c-27.714844 6.300781-47.859375 31.03125-47.859375 60.082031 0 33.988282 27.648438 61.640625 61.628906 61.640625 10.476563 0 20.507813-2.613281 29.378906-7.4375-14.710937 17.582031-23.035156 39.933594-23.035156 63.449219v27.921875c0 4.199219 3.398438 7.597656 7.597656 7.597656 4.199219 0 7.597657-3.398437 7.597657-7.597656v-27.921875c0-26.289062 12.296875-50.863281 33.113281-66.679688.855469.511719 1.714844 1.007813 2.585938 1.492188-2.082032 31.296875 12.65625 57.195312 43.902343 77.03125 1.242188.789062 2.65625 1.183594 4.074219 1.183594 1.414062 0 2.828125-.394532 4.070312-1.179688 31.226563-19.816406 45.96875-45.6875 43.902344-76.957031.886719-.492187 1.753906-1.007813 2.625-1.523437 3.015625 2.296874 5.890625 4.785156 8.570313 7.460937 15.804687 15.816406 24.511719 36.832031 24.511719 59.175781v82.683594c0 4.199219 3.398437 7.601562 7.597656 7.601562 4.199218 0 7.597656-3.402343 7.597656-7.601562v-96.945312c0-29.589844 20.277344-55.101563 48.695312-61.96875 4.507813 3.828124 9.359376 7.265624 14.507813 10.25l4.957031 41.78125c.339844 2.859374 2.265625 5.28125 4.976563 6.253906.839843.300781 1.707031.449218 2.566406.449218 1.925781 0 3.816406-.734374 5.253906-2.105468l24.042969-22.992188v125.28125c0 4.195313 3.402344 7.597656 7.601562 7.597656 4.195313 0 7.597657-3.402343 7.597657-7.597656v-125.28125l24.042969 22.988282c1.4375 1.375 3.328124 2.105468 5.253906 2.105468.863281 0 1.730468-.144531 2.566406-.445312 2.710938-.976563 4.640625-3.398438 4.976562-6.257813l4.957032-41.765625c5.171875-2.988281 10.042968-6.417968 14.550781-10.25 28.394531 6.875 48.652344 32.371094 48.652344 61.957032v96.945312c0 4.195312 3.402343 7.597656 7.597656 7.597656 4.199219 0 7.601563-3.402344 7.601563-7.597656v-96.945312c0-33.613282-21.125-62.964844-51.78125-74.160157zm21.800781-48.847656c.6875-4.699219 1.0625-9.488281 1.0625-14.351563v-6.3125c.992187.425782 1.875 1.140626 2.402343 2.347657 1.242188 2.863281 4.035157 4.570312 6.972657 4.570312 1.011719 0 2.039062-.203125 3.023437-.632812 3.851563-1.671875 5.613282-6.148438 3.941406-9.996094-2.941406-6.765625-8.742187-10.953125-16.339843-11.8125v-8.191406c11.027343 1.339843 19.605469 10.75 19.605469 22.132812 0 11.75-9.132813 21.402344-20.667969 22.246094zm-181.5-50.242187 20.792969-44.605469c40.820312 14.730469 84.964843 14.726562 125.78125 0l20.789062 44.605469v19.871093c-.414062 1.355469-.464844 2.835938-.050781 4.300781.015625.050782.035156.097657.050781.144532v11.574218c0 40.0625-28.503906 74.617188-67.785156 82.164063-4.4375.855469-8.980469 1.355469-13.5 1.484375h-.019532c-.074218 0-.148437 0-.222656.003906-.792968.023438-1.585937.03125-2.390625.027344-46.011719-.085938-83.445312-37.625-83.445312-83.679688zm-111.902344 118.058593c-4.398437.847657-8.941406 1.347657-13.496094 1.480469h-.015625c-.058594 0-.117187 0-.175781.003906-.8125.019532-1.625.027344-2.433594.027344-46.011719-.09375-83.445312-37.628906-83.445312-83.675781v-17.070313c0-22.875 24.488281-35.8125 48.171875-48.328125 13.96875-7.382812 27.449218-14.507812 35.511718-23.757812 8.0625 9.25 21.546876 16.375 35.511719 23.757812 20.476563 10.824219 41.605469 22 46.882813 39.53125-2.925782 5.335938-4.59375 11.460938-4.59375 17.96875 0 6.898438 1.878906 13.363281 5.140625 18.925781-4.667969 35.316407-31.898438 64.375-67.058594 71.136719zm77.113281-90.066406c0-11.378906 8.570313-20.785156 19.59375-22.128906v8.226562c-6.5.773438-12.996094 4.097657-16.335937 11.773438-1.675781 3.847656.085937 8.324219 3.933593 10 .988282.429687 2.015626.632812 3.027344.632812 2.933594 0 5.726563-1.707031 6.972656-4.570312.523438-1.203125 1.394532-1.933594 2.402344-2.359375v6.324218c0 4.875.363282 9.664063 1.046875 14.351563-11.523437-.855469-20.640625-10.503906-20.640625-22.25zm3.34375-105.300781c-5.503906 21.0625-6.105468 45.808594-1.753906 74.0625-.335938.222656-.664062.457031-.992188.6875-9.78125-18.59375-31.457031-30.0625-50.980468-40.382813-18.003906-9.515625-35.011719-18.503906-35.011719-29.296875 0-.03125-.003906-.0625-.003906-.097656v-69.824219c39.210937 2.910157 74.003906 28.148438 88.742187 64.851563zm-247.996094 147.164062c0-23.625 17.679688-43.453125 41.125-46.125 3.839844-.4375 6.738282-3.6875 6.738282-7.550781v-54.839844c0-27.722656 10.792968-53.789062 30.398437-73.390625 17.796875-17.800781 40.929688-28.335937 65.792969-30.125v69.9375h.003906c0 10.792969-17.007812 19.78125-35.015625 29.296875-25.070312 13.246094-56.269531 29.734375-56.269531 61.765625v17.070313c0 25.820312 9.96875 49.371093 26.25 67.007812-8.644531 8.570313-20.207031 13.394531-32.589844 13.394531-25.601562 0-46.433594-20.832031-46.433594-46.441406zm159.246094 108.285156v-15.226562c0-4.195312-3.402344-7.597656-7.597656-7.597656-4.199219 0-7.601562 3.402344-7.601562 7.597656v15.222656c-16.933594-13.871094-25.183594-29.8125-25.394532-49.035156 10.253906 3.644531 21.277344 5.644531 32.753906 5.667969.910157 0 1.808594-.011719 2.710938-.03125h.035156c.070313 0 .140625 0 .210938-.003907 5.414062-.152343 10.820312-.742187 16.054687-1.753906 4.871094-.9375 9.613281-2.234375 14.222657-3.855468-.210938 19.214843-8.460938 35.152343-25.394532 49.015624zm68.238282-54.078124c6.242187 3.390624 13.058593 5.675781 20.203124 6.734374-2.75 4.316407-5.070312 8.914063-6.949218 13.726563-3.523438-7.285156-7.960938-14.152344-13.253906-20.460937zm32.179687-7.851563c-.921875.054687-1.855469.085937-2.792969.085937-12.371094 0-23.921875-4.808593-32.5625-13.355468.058594-.0625.117188-.121094.175782-.183594 11.273437-12.269531 19.097656-26.828125 23.058593-42.679688 5.667969 3.445313 12.3125 5.429688 19.417969 5.429688.605469 0 1.207031-.015625 1.808594-.042969 3.90625 12.433594 10.210937 23.820313 18.367187 33.617188-10.410156 3.796875-19.710937 9.6875-27.472656 17.128906zm70.257813 12.824219c5.09375 1.824218 10.382812 3.242187 15.820312 4.207031l-13.761719 13.160156zm64.34375 17.367187-13.785157-13.179687c.472657-.085938.945313-.152344 1.414063-.242188 4.96875-.957031 9.78125-2.296875 14.433594-3.953125zm0 0"/><path d="m402.601562 325.410156c-2.597656-6.175781-11.675781-6.101562-14.101562.175782-1.226562 3.175781-.132812 6.871093 2.617188 8.878906 2.429687 1.769531 5.777343 1.90625 8.351562.375 3.207031-1.902344 4.558594-5.988282 3.132812-9.429688zm0 0"/><path d="m452.617188 342.484375c-4.195313 0-7.597657 3.402344-7.597657 7.597656v77.761719c0 4.195312 3.402344 7.597656 7.597657 7.597656 4.199218 0 7.597656-3.402344 7.597656-7.597656v-77.761719c0-4.195312-3.398438-7.597656-7.597656-7.597656zm0 0"/><path d="m304.019531 342.484375c-4.195312 0-7.597656 3.402344-7.597656 7.597656v77.761719c0 4.195312 3.402344 7.597656 7.597656 7.597656 4.199219 0 7.597657-3.402344 7.597657-7.597656v-77.761719c0-4.195312-3.398438-7.597656-7.597657-7.597656zm0 0"/></svg>