<svg height="512pt" viewBox="0 0 512 512" width="512pt" xmlns="http://www.w3.org/2000/svg"><path d="m512 256c0 131.5-99.148438 239.847656-226.773438 254.347656-9.59375 1.089844-19.34375 1.652344-29.226562 1.652344-53.980469 0-104.039062-16.699219-145.324219-45.222656-66.863281-46.183594-110.675781-123.359375-110.675781-210.777344 0-141.386719 114.613281-256 256-256s256 114.613281 256 256zm0 0" fill="#66baed"/><path d="m285.257812 509.148438c0 .394531-.011718.804687-.03125 1.199218-9.59375 1.089844-19.34375 1.652344-29.226562 1.652344-53.980469 0-104.039062-16.699219-145.324219-45.222656 18.273438-6.855469 41.128907-10.917969 65.910157-10.917969 60.019531 0 108.671874 23.851563 108.671874 53.289063zm0 0" fill="#2ba1cf"/><path d="m470.214844 296.789062c0-21.484374-35.519532-38.902343-79.335938-38.902343-43.8125 0-79.332031 17.417969-79.332031 38.902343 0 21.488282 35.519531 38.90625 79.332031 38.90625 43.816406 0 79.335938-17.417968 79.335938-38.90625zm0 0" fill="#2ba1cf"/><path d="m500.082031 106.046875c-3.023437-141.394531-215.382812-141.394531-218.402343 0-.035157 1.542969-.050782 3.085937-.050782 4.636719 0 79.984375 44.074219 149.660156 109.25 186.105468 65.179688-36.445312 109.25-106.121093 109.25-186.105468 0-1.550782-.015625-3.09375-.046875-4.636719zm0 0" fill="#ffe152"/><path d="m469.605469 107.054688c0 25.238281-11.875 47.699218-30.347657 62.101562-13.34375 10.417969-30.136718 16.621094-48.375 16.621094-18.238281 0-35.035156-6.203125-48.378906-16.621094-18.472656-14.402344-30.347656-36.859375-30.347656-62.101562 0-43.480469 35.246094-78.726563 78.726562-78.726563 43.476563 0 78.722657 35.246094 78.722657 78.726563zm0 0" fill="#dde8ed"/><path d="m332.742188 155.628906v-63.988281c0-6.503906 1.085937-12.871094 3.226562-18.933594 8.007812-22.789062 29.632812-38.105469 53.8125-38.105469 2.992188 0 5.980469.230469 8.886719.6875 13.28125 2.078126 25.46875 8.859376 34.304687 19.09375 8.929688 10.34375 13.847656 23.574219 13.847656 37.257813v63.988281" fill="#3d4159"/><path d="m356.207031 94.140625c0 22.632813 13.253907 48.820313 20.53125 61.488281h-43.996093v-63.988281c0-6.5 1.085937-12.871094 3.226562-18.933594 7.957031-22.660156 29.386719-37.929687 53.394531-38.101562-17.535156.4375-33.15625 28.570312-33.15625 59.535156zm0 0" fill="#2a2f4f"/><path d="m348.257812 119.066406c0 7.007813-5.121093 12.820313-11.824218 13.898438-.734375.117187-1.488282.179687-2.253906.179687-7.777344 0-14.078126-6.300781-14.078126-14.078125s6.300782-14.078125 14.078126-14.078125c.765624 0 1.519531.0625 2.253906.183594 6.703125 1.078125 11.824218 6.886719 11.824218 13.894531zm0 0" fill="#f6caae"/><g fill="#eab599"><path d="m348.257812 119.066406c0 7.007813-5.121093 12.820313-11.824218 13.898438-1.21875-4.429688-1.867188-9.089844-1.867188-13.898438s.648438-9.46875 1.867188-13.894531c6.703125 1.078125 11.824218 6.886719 11.824218 13.894531zm0 0"/><path d="m339.210938 119.066406c0 2.78125-2.253907 5.03125-5.03125 5.03125-2.78125 0-5.03125-2.25-5.03125-5.03125 0-2.777344 2.25-5.03125 5.03125-5.03125 2.777343 0 5.03125 2.253906 5.03125 5.03125zm0 0"/><path d="m425.929688 101.089844v48.394531c-7.480469 7.136719-17.070313 12.082031-27.742188 13.800781-.082031.015625-.171875.027344-.257812.042969-2.648438.425781-5.371094.632813-8.148438.632813-28.925781 0-52.378906-23.449219-52.378906-52.375v-19.945313c0-2.554687.183594-5.066406.539062-7.519531 12.460938 8.960937 30.328125 8.074218 41.710938-2.6875 3.769531-3.558594 6.390625-7.800782 7.871094-12.296875.824218 7.875 4.429687 15.542969 10.8125 21.578125 7.601562 7.175781 17.644531 10.636718 27.59375 10.375zm0 0"/></g><path d="m425.929688 101.089844v48.394531c-7.480469 7.136719-17.070313 12.082031-27.742188 13.800781-.082031.015625-.171875.027344-.257812.042969-25.050782-3.914063-44.214844-25.59375-44.214844-51.742187v-19.945313c0-.53125.011718-1.058594.027344-1.585937 9.238281.949218 18.828124-1.921876 25.910156-8.621094 3.773437-3.558594 6.390625-7.800782 7.875-12.296875.824218 7.875 4.425781 15.542969 10.808594 21.578125 7.601562 7.175781 17.644531 10.636718 27.59375 10.375zm0 0" fill="#f6caae"/><path d="m417.910156 107.164062c0-4.804687-3.894531-8.699218-8.699218-8.699218-4.804688 0-8.699219 3.894531-8.699219 8.699218" fill="#eab599"/><path d="m379.054688 107.164062c0-4.804687-3.890626-8.699218-8.695313-8.699218s-8.699219 3.894531-8.699219 8.699218" fill="#eab599"/><path d="m376.300781 110.867188c0 3.28125-2.660156 5.941406-5.941406 5.941406s-5.941406-2.660156-5.941406-5.941406 2.660156-5.941407 5.941406-5.941407 5.941406 2.660157 5.941406 5.941407zm0 0" fill="#3d4159"/><path d="m415.152344 110.867188c0 3.28125-2.660156 5.941406-5.941406 5.941406s-5.941407-2.660156-5.941407-5.941406 2.660157-5.941407 5.941407-5.941407 5.941406 2.660157 5.941406 5.941407zm0 0" fill="#3d4159"/><path d="m395.726562 125.828125h-11.882812c-1.417969 0-2.5625-1.148437-2.5625-2.566406 0-1.414063 1.144531-2.5625 2.5625-2.5625h11.882812c1.417969 0 2.5625 1.148437 2.5625 2.5625 0 1.417969-1.148437 2.566406-2.5625 2.566406zm0 0" fill="#eab599"/><path d="m389.785156 142.042969c-4.386718 0-8.773437-1.101563-12.769531-3.296875-1.128906-.621094-1.539063-2.035156-.921875-3.164063.621094-1.128906 2.039062-1.539062 3.164062-.917969 6.589844 3.621094 14.460938 3.621094 21.050782 0 1.128906-.621093 2.542968-.210937 3.164062.917969.621094 1.128907.207032 2.542969-.917968 3.164063-4 2.199218-8.382813 3.296875-12.769532 3.296875zm0 0" fill="#eab599"/><path d="m375.089844 109.816406c0 1.40625-1.140625 2.546875-2.546875 2.546875s-2.546875-1.140625-2.546875-2.546875 1.140625-2.546875 2.546875-2.546875 2.546875 1.140625 2.546875 2.546875zm0 0" fill="#fff"/><path d="m414.234375 109.816406c0 1.40625-1.140625 2.546875-2.546875 2.546875s-2.546875-1.140625-2.546875-2.546875 1.140625-2.546875 2.546875-2.546875 2.546875 1.140625 2.546875 2.546875zm0 0" fill="#fff"/><path d="m425.433594 125.339844c0 3.601562-2.921875 6.523437-6.523438 6.523437-3.605468 0-6.527344-2.921875-6.527344-6.523437 0-3.605469 2.921876-6.527344 6.527344-6.527344 3.601563 0 6.523438 2.921875 6.523438 6.527344zm0 0" fill="#eab599"/><path d="m367.179688 125.339844c0 3.601562-2.921876 6.523437-6.523438 6.523437-3.605469 0-6.523438-2.921875-6.523438-6.523437 0-3.605469 2.917969-6.527344 6.523438-6.527344 3.601562 0 6.523438 2.921875 6.523438 6.527344zm0 0" fill="#eab599"/><path d="m331.792969 240.25c-4.136719-193.671875-295.019531-193.671875-299.160157 0-.042968 2.113281-.066406 4.230469-.066406 6.355469 0 109.558593 60.371094 204.996093 149.648438 254.917969 89.277344-49.921876 149.644531-145.363282 149.644531-254.917969 0-2.125-.023437-4.242188-.066406-6.355469zm0 0" fill="#f74f4f"/><path d="m290.050781 241.632812c0 34.574219-16.265625 65.339844-41.570312 85.066407-18.277344 14.269531-41.285157 22.765625-66.265625 22.765625-24.980469 0-47.984375-8.496094-66.261719-22.765625-25.304687-19.726563-41.570313-50.492188-41.570313-85.066407 0-59.554687 48.277344-107.832031 107.832032-107.832031 59.558594 0 107.835937 48.277344 107.835937 107.832031zm0 0" fill="#dde8ed"/><path d="m122.289062 270.898438c0 10.113281-7.390624 18.5-17.0625 20.054687-1.058593.171875-2.144531.261719-3.253906.261719-11.222656 0-20.316406-9.09375-20.316406-20.316406 0-11.222657 9.09375-20.316407 20.316406-20.316407 1.109375 0 2.195313.089844 3.253906.257813 9.671876 1.558594 17.0625 9.945312 17.0625 20.058594zm0 0" fill="#f6caae"/><path d="m122.289062 270.898438c0 10.113281-7.390624 18.5-17.0625 20.054687-1.757812-6.390625-2.695312-13.113281-2.695312-20.054687 0-6.941407.9375-13.664063 2.695312-20.054688 9.671876 1.554688 17.0625 9.941406 17.0625 20.054688zm0 0" fill="#eab599"/><path d="m109.234375 270.898438c0 4.011718-3.253906 7.261718-7.261719 7.261718-4.011718 0-7.261718-3.25-7.261718-7.261718 0-4.011719 3.25-7.261719 7.261718-7.261719 4.007813 0 7.261719 3.25 7.261719 7.261719zm0 0" fill="#eab599"/><path d="m242.136719 270.898438c0 10.113281 7.390625 18.5 17.0625 20.054687 1.058593.171875 2.144531.261719 3.253906.261719 11.222656 0 20.316406-9.09375 20.316406-20.316406 0-11.222657-9.09375-20.316407-20.316406-20.316407-1.109375 0-2.195313.089844-3.253906.257813-9.671875 1.558594-17.0625 9.945312-17.0625 20.058594zm0 0" fill="#f6caae"/><path d="m242.136719 270.898438c0 10.113281 7.390625 18.5 17.0625 20.054687 1.757812-6.390625 2.695312-13.113281 2.695312-20.054687 0-6.941407-.9375-13.664063-2.695312-20.054688-9.671875 1.554688-17.0625 9.941406-17.0625 20.054688zm0 0" fill="#eab599"/><path d="m257.800781 231.320312v28.78125c0 37.613282-27.480469 68.820313-63.457031 74.609376-.121094.019531-.25.039062-.371094.0625-3.828125.609374-7.753906.914062-11.761718.914062-41.742188 0-75.585938-33.84375-75.585938-75.585938v-28.78125c0-8.789062 1.5-17.238281 4.273438-25.085937 10.335937-29.414063 38.367187-50.503906 71.3125-50.503906h.003906c4.003906 0 7.9375.308593 11.769531.914062 36.15625 5.648438 63.816406 36.933594 63.816406 74.675781zm0 0" fill="#eab599"/><path d="m269.714844 270.898438c0 4.011718-3.25 7.261718-7.261719 7.261718-4.007813 0-7.261719-3.25-7.261719-7.261718 0-4.011719 3.253906-7.261719 7.261719-7.261719 4.011719 0 7.261719 3.25 7.261719 7.261719zm0 0" fill="#eab599"/><path d="m257.800781 231.320312v28.78125c0 37.613282-27.480469 68.820313-63.457031 74.609376-.121094.019531-.25.039062-.371094.0625-36.15625-5.652344-63.808594-36.9375-63.808594-74.671876v-28.78125c0-37.742187 27.660157-69.027343 63.824219-74.675781 36.152344 5.648438 63.8125 36.933594 63.8125 74.675781zm0 0" fill="#f6caae"/><path d="m166.117188 255.699219c0 4.738281-3.839844 8.578125-8.574219 8.578125-4.738281 0-8.574219-3.839844-8.574219-8.578125 0-4.734375 3.835938-8.574219 8.574219-8.574219 4.734375 0 8.574219 3.839844 8.574219 8.574219zm0 0" fill="#3d4159"/><path d="m215.460938 255.699219c0 4.738281-3.839844 8.578125-8.574219 8.578125s-8.574219-3.839844-8.574219-8.578125c0-4.734375 3.839844-8.574219 8.574219-8.574219s8.574219 3.839844 8.574219 8.574219zm0 0" fill="#3d4159"/><path d="m164.367188 254.1875c0 2.027344-1.644532 3.671875-3.671876 3.671875-2.03125 0-3.675781-1.644531-3.675781-3.671875 0-2.03125 1.644531-3.675781 3.675781-3.675781 2.027344 0 3.671876 1.644531 3.671876 3.675781zm0 0" fill="#fff"/><path d="m214.132812 254.1875c0 2.027344-1.644531 3.671875-3.671874 3.671875-2.03125 0-3.675782-1.644531-3.675782-3.671875 0-2.03125 1.644532-3.675781 3.675782-3.675781 2.027343 0 3.671874 1.644531 3.671874 3.675781zm0 0" fill="#fff"/><path d="m190.789062 273.925781h-17.148437c-2.042969 0-3.699219-1.65625-3.699219-3.699219 0-2.039062 1.65625-3.695312 3.699219-3.695312h17.148437c2.042969 0 3.699219 1.65625 3.699219 3.695312 0 2.042969-1.65625 3.699219-3.699219 3.699219zm0 0" fill="#eab599"/><path d="m182.214844 297.328125c-6.328125 0-12.660156-1.585937-18.429688-4.757813-1.625-.894531-2.21875-2.9375-1.324218-4.566406.894531-1.625 2.9375-2.21875 4.566406-1.324218 9.507812 5.226562 20.863281 5.226562 30.375 0 1.628906-.894532 3.671875-.300782 4.566406 1.324218.894531 1.628906.300781 3.671875-1.328125 4.566406-5.769531 3.171876-12.097656 4.757813-18.425781 4.757813zm0 0" fill="#eab599"/><path d="m257.800781 205.195312v29.488282h-14.070312v-23.089844l-101.546875-18.871094-21.488282-3.996094v45.957032h-14.066406v-29.488282c0-33.609374 27.242188-60.851562 60.847656-60.851562h29.476563c.800781 0 1.601563.011719 2.402344.050781 32.488281 1.25 58.445312 27.992188 58.445312 60.800781zm0 0" fill="#2a2f4f"/><path d="m257.800781 205.195312v29.488282h-14.070312v-23.089844l-101.546875-18.871094c5.59375-26.875 28.910156-47.238281 57.167968-48.328125 32.492188 1.25 58.449219 27.992188 58.449219 60.800781zm0 0" fill="#3d4159"/></svg>