<svg height="512pt" viewBox="0 0 512 512" width="512pt" xmlns="http://www.w3.org/2000/svg"><path d="m512 256c0 75.972656-33.09375 144.21875-85.660156 191.089844-45.253906 40.375-104.917969 64.910156-170.339844 64.910156s-125.09375-24.535156-170.351562-64.910156c-52.554688-46.882813-85.648438-115.125-85.648438-191.089844 0-141.386719 114.613281-256 256-256s256 114.613281 256 256zm0 0" fill="#ffe152"/><path d="m426.339844 447.089844c-45.253906 40.375-104.917969 64.910156-170.339844 64.910156s-125.09375-24.535156-170.351562-64.910156c1.277343-5.503906 3.742187-10.855469 7.265624-15.976563 19.832032-28.816406 73.328126-50.53125 138.71875-54.910156 7.960938-.53125 16.089844-.800781 24.367188-.800781 88.292969 0 160.996094 31.375 170.339844 71.6875zm0 0" fill="#854f89"/><path d="m256 455.910156s-107.28125 3.992188-163.085938-24.796875c19.832032-28.816406 73.328126-50.53125 138.71875-54.910156zm0 0" fill="#713775"/><path d="m421.359375 167.066406c-4.574219-214.109375-326.152344-214.109375-330.726563 0-.050781 2.335938-.074218 4.679688-.074218 7.027344 0 121.117188 66.738281 226.628906 165.4375 281.816406 98.699218-55.1875 165.4375-160.699218 165.4375-281.816406 0-2.347656-.023438-4.691406-.074219-7.027344zm0 0" fill="#f74f4f"/><path d="m255.996094 455.910156c-98.699219-55.191406-165.4375-160.707031-165.4375-281.820312 0-2.351563.023437-4.691406.074218-7.019532 2.289063-107.0625 83.820313-160.582031 165.363282-160.582031-65.921875 0-131.84375 53.519531-133.691406 160.582031-.042969 2.328126-.0625 4.667969-.0625 7.019532 0 121.113281 53.957031 226.628906 133.753906 281.820312zm0 0" fill="#dd3033"/><path d="m375.210938 168.59375c0 38.222656-17.980469 72.234375-45.953126 94.042969-20.207031 15.777343-45.640624 25.171875-73.257812 25.171875s-53.050781-9.394532-73.257812-25.171875c-27.972657-21.808594-45.953126-55.820313-45.953126-94.042969 0-65.839844 53.371094-119.210938 119.210938-119.210938s119.210938 53.371094 119.210938 119.210938zm0 0" fill="#dde8ed"/><path d="m189.746094 200.949219c0 11.179687-8.164063 20.449219-18.859375 22.171875-1.171875.1875-2.371094.285156-3.597657.285156-12.40625 0-22.460937-10.050781-22.460937-22.457031s10.054687-22.460938 22.460937-22.460938c1.226563 0 2.425782.101563 3.597657.289063 10.695312 1.71875 18.859375 10.988281 18.859375 22.171875zm0 0" fill="#f6caae"/><path d="m189.746094 200.949219c0 11.179687-8.164063 20.449219-18.859375 22.171875-1.945313-7.066406-2.980469-14.5-2.980469-22.171875 0-7.675781 1.035156-15.109375 2.980469-22.171875 10.695312 1.71875 18.859375 10.988281 18.859375 22.171875zm0 0" fill="#eab599"/><path d="m175.316406 200.949219c0 4.429687-3.59375 8.023437-8.027344 8.023437-4.433593 0-8.027343-3.59375-8.027343-8.023437 0-4.433594 3.59375-8.027344 8.027343-8.027344 4.433594 0 8.027344 3.59375 8.027344 8.027344zm0 0" fill="#eab599"/><path d="m322.246094 200.949219c0 11.179687 8.167968 20.449219 18.859375 22.171875 1.171875.1875 2.371093.285156 3.597656.285156 12.410156 0 22.460937-10.050781 22.460937-22.457031s-10.050781-22.460938-22.460937-22.460938c-1.226563 0-2.425781.101563-3.597656.289063-10.691407 1.71875-18.859375 10.988281-18.859375 22.171875zm0 0" fill="#f6caae"/><g fill="#eab599"><path d="m322.246094 200.949219c0 11.179687 8.167968 20.449219 18.859375 22.171875 1.945312-7.066406 2.980469-14.5 2.980469-22.171875 0-7.675781-1.035157-15.109375-2.980469-22.171875-10.691407 1.71875-18.859375 10.988281-18.859375 22.171875zm0 0"/><path d="m339.558594 157.191406v31.820313c0 41.582031-30.375 76.082031-70.152344 82.480469-.132812.023437-.273438.046874-.410156.070312-4.230469.675781-8.570313 1.007812-13.003906 1.007812-46.144532 0-83.558594-37.410156-83.558594-83.558593v-31.820313c0-9.714844 1.660156-19.054687 4.722656-27.730468 11.425781-32.519532 42.414062-55.835938 78.835938-55.835938h.007812c4.425781 0 8.773438.34375 13.011719 1.011719 39.96875 6.246093 70.546875 40.832031 70.546875 82.554687zm0 0"/><path d="m352.734375 200.949219c0 4.429687-3.59375 8.023437-8.027344 8.023437-4.433593 0-8.027343-3.59375-8.027343-8.023437 0-4.433594 3.59375-8.027344 8.027343-8.027344 4.433594 0 8.027344 3.59375 8.027344 8.027344zm0 0"/></g><path d="m339.558594 157.191406v31.820313c0 41.582031-30.375 76.082031-70.152344 82.480469-.132812.023437-.273438.046874-.410156.070312-39.96875-6.246094-70.539063-40.832031-70.539063-82.550781v-31.820313c0-41.722656 30.578125-76.308594 70.554688-82.554687 39.96875 6.246093 70.546875 40.832031 70.546875 82.554687zm0 0" fill="#f6caae"/><path d="m238.203125 184.148438c0 5.234374-4.246094 9.476562-9.480469 9.476562s-9.480468-4.242188-9.480468-9.476562c0-5.238282 4.246093-9.480469 9.480468-9.480469s9.480469 4.242187 9.480469 9.480469zm0 0" fill="#3d4159"/><path d="m292.753906 184.148438c0 5.234374-4.246094 9.476562-9.480468 9.476562-5.234376 0-9.480469-4.242188-9.480469-9.476562 0-5.238282 4.246093-9.480469 9.480469-9.480469 5.234374 0 9.480468 4.242187 9.480468 9.480469zm0 0" fill="#3d4159"/><path d="m236.269531 182.472656c0 2.242188-1.820312 4.0625-4.0625 4.0625-2.242187 0-4.0625-1.820312-4.0625-4.0625 0-2.242187 1.820313-4.058594 4.0625-4.058594 2.242188 0 4.0625 1.816407 4.0625 4.058594zm0 0" fill="#fff"/><path d="m291.285156 182.472656c0 2.242188-1.820312 4.0625-4.0625 4.0625-2.242187 0-4.058594-1.820312-4.058594-4.0625 0-2.242187 1.816407-4.058594 4.058594-4.058594 2.242188 0 4.0625 1.816407 4.0625 4.058594zm0 0" fill="#fff"/><path d="m265.476562 204.296875h-18.957031c-2.257812 0-4.089843-1.832031-4.089843-4.089844 0-2.257812 1.832031-4.089843 4.089843-4.089843h18.957031c2.257813 0 4.089844 1.832031 4.089844 4.089843 0 2.257813-1.832031 4.089844-4.089844 4.089844zm0 0" fill="#eab599"/><path d="m255.996094 230.167969c-6.996094 0-13.992188-1.753907-20.371094-5.261719-1.796875-.988281-2.453125-3.25-1.464844-5.046875.988282-1.800781 3.246094-2.457031 5.046875-1.46875 10.511719 5.78125 23.066407 5.78125 33.582031 0 1.796876-.988281 4.058594-.332031 5.046876 1.46875.988281 1.800781.332031 4.058594-1.464844 5.046875-6.378906 3.507812-13.375 5.261719-20.375 5.261719zm0 0" fill="#eab599"/><path d="m339.558594 128.3125v32.597656h-15.550782v-25.527344l-112.265624-20.859374-23.753907-4.417969v50.804687h-15.554687v-32.597656c0-37.15625 30.121094-67.277344 67.269531-67.277344h32.585937c.886719 0 1.773438.015625 2.65625.0625 35.917969 1.382813 64.613282 30.941406 64.613282 67.214844zm0 0" fill="#2a2f4f"/><path d="m339.558594 128.3125v32.597656h-15.550782v-25.527344l-112.265624-20.859374c6.1875-29.710938 31.960937-52.222657 63.203124-53.425782 35.917969 1.382813 64.613282 30.941406 64.613282 67.214844zm0 0" fill="#3d4159"/></svg>