<?xml version="1.0" encoding="UTF-8" standalone="no"?>
<!-- Generator: Adobe Illustrator 18.1.1, SVG Export Plug-In . SVG Version: 6.00 Build 0)  -->

<svg
   xmlns:dc="http://purl.org/dc/elements/1.1/"
   xmlns:cc="http://creativecommons.org/ns#"
   xmlns:rdf="http://www.w3.org/1999/02/22-rdf-syntax-ns#"
   xmlns:svg="http://www.w3.org/2000/svg"
   xmlns="http://www.w3.org/2000/svg"
   xmlns:sodipodi="http://sodipodi.sourceforge.net/DTD/sodipodi-0.dtd"
   xmlns:inkscape="http://www.inkscape.org/namespaces/inkscape"
   version="1.1"
   id="Capa_1"
   x="0px"
   y="0px"
   viewBox="0 0 61.236 61.236"
   style="enable-background:new 0 0 61.236 61.236;"
   xml:space="preserve"
   sodipodi:docname="standing-person-with-kid-up-in-arms.svg"
   inkscape:version="0.92.3 (2405546, 2018-03-11)"><metadata
   id="metadata47"><rdf:RDF><cc:Work
       rdf:about=""><dc:format>image/svg+xml</dc:format><dc:type
         rdf:resource="http://purl.org/dc/dcmitype/StillImage" /></cc:Work></rdf:RDF></metadata><defs
   id="defs45" /><sodipodi:namedview
   pagecolor="#ffffff"
   bordercolor="#666666"
   borderopacity="1"
   objecttolerance="10"
   gridtolerance="10"
   guidetolerance="10"
   inkscape:pageopacity="0"
   inkscape:pageshadow="2"
   inkscape:window-width="640"
   inkscape:window-height="480"
   id="namedview43"
   showgrid="false"
   inkscape:zoom="7.7078842"
   inkscape:cx="23.746014"
   inkscape:cy="31.10825"
   inkscape:window-x="0"
   inkscape:window-y="0"
   inkscape:window-maximized="0"
   inkscape:current-layer="Capa_1" />
<g
   id="g10"
   style="fill:#ffffff">
	<g
   id="g8"
   style="fill:#ffffff">
		<circle
   style="fill:#ffffff"
   cx="18.959"
   cy="10.279"
   r="4.376"
   id="circle2" />
		<path
   style="fill:#ffffff"
   d="M46.634,25.892c-0.308-2.217-1.308-4.264-1.877-6.405c0.015-0.131,0.038-0.257,0.036-0.399    c-0.029-3.279-0.43-6.52-0.887-9.761C43.68,7.743,41.689,6.9,40.302,7.283c-0.606,0.167-1.065,0.48-1.401,0.883    c-1.104-0.364-2.271-0.535-3.479-0.549c-2.27-0.027-2.268,3.487,0,3.514c1.091,0.014,2.04,0.195,2.947,0.604    c0.021,0.169,0.045,0.338,0.064,0.508c-0.438,0.177-0.839,0.483-1.161,0.962c-1.896,2.825-5.854,1.864-8.801,1.6    c-1.508-1.179-3.686-1.174-5.195,0.12c-1.722,1.475-1.921,4.066-0.446,5.787c3.423,3.994,3.334,10.332,3.248,16.463    c-0.013,0.938-0.025,1.861-0.025,2.759c0,1.142,0.467,2.173,1.22,2.917c-0.351,5.256-1.694,10.51-3.64,15.356    c-1.217,3.024,3.672,4.325,4.87,1.342c2.033-5.062,3.414-10.606,3.803-16.123c1.173-0.724,1.956-2.015,1.956-3.492    c0-0.858,0.015-1.743,0.024-2.644c0.076-5.35,0.151-11.705-2.306-17.245c2.485,0.043,4.806-0.231,6.808-1.476    c-0.49,1.78-1.392,3.351-2.352,4.952c-1.168,1.948,1.871,3.715,3.034,1.774c0.67-1.117,1.315-2.246,1.851-3.423    c0.188,0.032,0.383,0.048,0.575,0.048c0.53,1.607,1.107,3.204,1.345,4.908C43.554,29.064,46.944,28.107,46.634,25.892z"
   id="path4" />
		<circle
   style="fill:#ffffff"
   cx="41.293"
   cy="3.389"
   r="3.389"
   id="circle6" />
	</g>
</g>
<g
   id="g12">
</g>
<g
   id="g14">
</g>
<g
   id="g16">
</g>
<g
   id="g18">
</g>
<g
   id="g20">
</g>
<g
   id="g22">
</g>
<g
   id="g24">
</g>
<g
   id="g26">
</g>
<g
   id="g28">
</g>
<g
   id="g30">
</g>
<g
   id="g32">
</g>
<g
   id="g34">
</g>
<g
   id="g36">
</g>
<g
   id="g38">
</g>
<g
   id="g40">
</g>
</svg>