<svg height="512pt" viewBox="-97 0 512 512" width="512pt" xmlns="http://www.w3.org/2000/svg"><path d="m35.308594 0h247.175781c19.5 0 35.308594 15.808594 35.308594 35.308594v441.382812c0 19.5-15.808594 35.308594-35.308594 35.308594h-247.175781c-19.5 0-35.308594-15.808594-35.308594-35.308594v-441.382812c0-19.5 15.808594-35.308594 35.308594-35.308594zm0 0" fill="#5e5f62"/><path d="m0 61.792969h317.792969v379.585937h-317.792969zm0 0" fill="#90bae1"/><path d="m317.792969 61.792969v60.117187c-169.402344 20.214844-266.503907 126.675782-317.792969 211.242188v-271.359375zm0 0" fill="#b0d3f0"/><g fill="#2c2f38"><path d="m167.722656 485.515625h-17.652344c-4.875 0-8.828124-3.949219-8.828124-8.824219 0-4.878906 3.953124-8.828125 8.828124-8.828125h17.652344c4.875 0 8.828125 3.949219 8.828125 8.828125 0 4.875-3.953125 8.824219-8.828125 8.824219zm0 0"/><path d="m79.449219 485.515625h-17.65625c-4.875 0-8.828125-3.949219-8.828125-8.824219 0-4.878906 3.953125-8.828125 8.828125-8.828125h17.65625c4.875 0 8.828125 3.949219 8.828125 8.828125 0 4.875-3.953125 8.824219-8.828125 8.824219zm0 0"/><path d="m256 485.515625h-17.65625c-4.875 0-8.828125-3.949219-8.828125-8.824219 0-4.878906 3.953125-8.828125 8.828125-8.828125h17.65625c4.875 0 8.828125 3.949219 8.828125 8.828125 0 4.875-3.953125 8.824219-8.828125 8.824219zm0 0"/><path d="m167.722656 0v17.65625c0 4.875-3.949218 8.828125-8.824218 8.828125-4.878907 0-8.828126-3.953125-8.828126-8.828125v-17.65625zm0 0"/></g><path d="m185.378906 247.171875c5.980469.015625 11.929688-.84375 17.65625-2.558594 26.191406-7.808593 44.144532-31.902343 44.136719-59.234375v-52.964844h-176.550781v52.964844c0 34.128906 27.664062 61.792969 61.792968 61.792969" fill="#2fa8cc"/><path d="m211.863281 167.722656v17.65625c0 14.625-11.859375 26.484375-26.484375 26.484375h-52.964844c-14.625 0-26.484374-11.859375-26.484374-26.484375v-17.65625zm0 0" fill="#f0c419"/><path d="m185.378906 247.171875c5.980469-.015625 11.929688.847656 17.65625 2.558594 26.191406 7.8125 44.144532 31.902343 44.136719 59.234375v61.792968h-176.550781v-61.792968c0-34.125 27.664062-61.792969 61.792968-61.792969" fill="#2fa8cc"/><path d="m211.863281 308.964844v26.484375h-105.933593v-26.484375c0-14.625 11.859374-26.480469 26.484374-26.480469h52.964844c14.625 0 26.484375 11.855469 26.484375 26.480469zm0 0" fill="#f0c419"/><path d="m61.792969 370.757812h194.207031c9.75 0 17.65625 7.90625 17.65625 17.65625s-7.90625 17.65625-17.65625 17.65625h-194.207031c-9.75 0-17.65625-7.90625-17.65625-17.65625s7.90625-17.65625 17.65625-17.65625zm0 0" fill="#cb8252"/><path d="m61.792969 97.101562h194.207031c9.75 0 17.65625 7.90625 17.65625 17.65625s-7.90625 17.65625-17.65625 17.65625h-194.207031c-9.75 0-17.65625-7.90625-17.65625-17.65625s7.90625-17.65625 17.65625-17.65625zm0 0" fill="#cb8252"/><path d="m158.898438 264.828125c-4.878907 0-8.828126-3.953125-8.828126-8.828125v-44.136719c0-4.875 3.949219-8.828125 8.828126-8.828125 4.875 0 8.824218 3.953125 8.824218 8.828125v44.136719c0 4.875-3.949218 8.828125-8.824218 8.828125zm0 0" fill="#f0c419"/><path d="m158.898438 291.308594c-4.878907 0-8.828126-3.949219-8.828126-8.824219v-26.484375c0-4.875 3.949219-8.828125 8.828126-8.828125 4.875 0 8.824218 3.953125 8.824218 8.828125v26.484375c0 4.875-3.949218 8.824219-8.824218 8.824219zm0 0" fill="#f0c419"/></svg>